<?xml version="1.0" standalone="no"?>
<!DOCTYPE svg PUBLIC "-//W3C//DTD SVG 20010904//EN"
 "http://www.w3.org/TR/2001/REC-SVG-20010904/DTD/svg10.dtd">
<svg version="1.0" xmlns="http://www.w3.org/2000/svg"
 width="800.000000pt" height="800.000000pt" viewBox="0 0 800.000000 800.000000"
 preserveAspectRatio="xMidYMid meet">

<g transform="translate(0.000000,800.000000) scale(0.100000,-0.100000)"
fill="#000000" stroke="none">
<path d="M3784 7566 c-3 -8 -4 -27 -2 -43 3 -27 5 -28 69 -31 l66 -3 7 -67 c3
-37 6 -122 6 -190 l0 -123 53 3 52 3 3 193 2 192 70 0 70 0 0 40 0 40 -195 0
c-160 0 -197 -3 -201 -14z"/>
<path d="M4277 7538 c-17 -114 -50 -418 -45 -424 9 -8 290 -44 300 -38 4 3 8
22 8 43 l0 38 -91 11 c-51 6 -94 13 -96 16 -3 2 -1 30 2 61 l8 57 51 -6 c28
-4 70 -9 92 -12 l42 -6 4 42 c2 23 1 43 -3 45 -3 3 -43 7 -87 11 l-82 7 0 45
0 45 53 -6 c28 -4 73 -10 99 -13 l47 -7 7 37 c3 21 3 41 -2 45 -7 6 -264 42
-295 41 -4 0 -9 -15 -12 -32z"/>
<path d="M3282 7510 c-18 -4 -35 -9 -37 -11 -7 -8 -67 -470 -62 -476 12 -11
102 12 104 27 11 89 8 84 78 98 86 16 82 17 106 -29 l20 -41 47 7 c26 4 52 10
58 13 8 5 -30 80 -106 212 -129 224 -125 221 -208 200z m118 -262 c0 -7 -12
-10 -73 -23 -18 -3 -18 2 -12 68 4 40 10 76 12 81 5 8 73 -109 73 -126z"/>
<path d="M4697 7402 c-15 -59 -41 -159 -57 -222 -16 -63 -27 -117 -22 -121 9
-8 95 -29 100 -24 2 2 12 35 21 73 32 124 45 123 91 -9 19 -55 39 -104 45
-108 12 -10 115 -35 119 -30 2 2 -19 64 -46 138 -26 74 -47 138 -46 142 2 4
49 43 106 88 l103 80 -38 10 c-94 25 -83 28 -184 -58 -52 -44 -95 -76 -97 -72
-1 4 8 49 21 100 l24 91 -41 11 c-23 5 -48 12 -56 15 -12 3 -22 -19 -43 -104z"/>
<path d="M2867 7410 c-131 -41 -190 -140 -137 -227 34 -57 62 -68 164 -65 114
2 126 -1 126 -38 0 -25 -7 -33 -42 -51 -36 -18 -54 -21 -120 -16 -43 3 -78 4
-78 3 0 -1 7 -24 16 -50 l17 -48 71 4 c85 6 161 36 206 83 27 28 34 44 37 87
5 63 -9 93 -57 126 -33 22 -41 24 -126 17 -77 -5 -94 -3 -108 10 -22 22 -20
32 8 60 28 28 78 39 147 33 49 -5 50 -4 45 18 -17 67 -23 74 -68 73 -24 0 -69
-8 -101 -19z"/>
<path d="M5124 7157 l-91 -212 46 -22 c25 -12 48 -19 52 -15 3 4 32 69 64 145
42 98 61 133 65 120 4 -10 13 -92 20 -181 l13 -164 45 -19 c25 -11 49 -18 54
-17 7 3 168 360 183 408 4 11 -6 20 -32 29 -21 8 -43 16 -49 18 -6 2 -33 -47
-60 -111 -26 -63 -51 -113 -55 -111 -3 3 -12 68 -19 145 l-13 142 -64 29 c-35
16 -65 29 -66 29 -1 0 -43 -96 -93 -213z"/>
<path d="M2398 7206 c-42 -18 -99 -46 -126 -61 l-51 -28 100 -199 c55 -109
106 -201 113 -204 14 -5 96 31 96 42 0 3 -17 38 -37 76 -35 68 -36 71 -18 84
11 8 22 13 25 11 27 -15 184 -87 191 -87 21 0 119 52 114 60 -4 6 -10 10 -15
10 -5 0 -52 20 -104 44 l-96 45 15 35 c19 46 19 90 -1 133 -36 75 -98 87 -206
39z m93 -87 c14 -14 19 -30 17 -57 -3 -32 -9 -40 -45 -60 l-42 -23 -31 60 -30
60 43 20 c54 25 63 25 88 0z"/>
<path d="M5822 7217 c-36 -45 -34 -55 13 -83 25 -14 47 -25 48 -23 25 35 37
62 32 69 -4 6 -24 19 -45 30 -29 15 -40 17 -48 7z"/>
<path d="M5676 7113 c-14 -26 -13 -29 11 -49 l26 -21 -77 -131 -78 -132 -28
15 c-28 14 -30 14 -50 -16 -12 -16 -21 -32 -19 -33 2 -2 51 -31 108 -64 l105
-61 19 31 19 31 -27 21 -26 21 77 132 77 132 29 -15 c17 -9 31 -14 32 -12 24
38 37 60 34 62 -43 29 -197 116 -205 116 -7 0 -19 -12 -27 -27z"/>
<path d="M2042 7009 c-23 -17 -42 -32 -42 -34 0 -2 41 -61 90 -132 95 -133
106 -157 96 -198 -6 -24 -51 -55 -79 -55 -28 0 -64 40 -150 164 -48 69 -90
126 -93 126 -3 0 -25 -14 -49 -31 l-43 -31 57 -80 c157 -224 175 -241 248
-242 60 -1 115 25 170 80 45 46 60 90 49 148 -5 26 -197 316 -209 316 -2 0
-22 -14 -45 -31z"/>
<path d="M5995 6918 c-14 -18 -77 -100 -140 -183 l-115 -150 37 -32 c21 -18
43 -33 49 -33 6 0 31 27 55 60 24 33 49 60 56 60 7 0 16 0 20 0 8 0 6 -121 -3
-181 -5 -34 -2 -39 48 -79 l53 -42 7 39 c4 21 7 83 8 138 0 55 4 106 8 113 5
7 61 27 126 45 65 18 118 36 119 40 1 5 -18 23 -43 42 l-45 33 -110 -34 c-60
-18 -116 -34 -123 -34 -7 0 15 36 49 81 l62 81 -29 24 c-56 46 -61 47 -89 12z"/>
<path d="M1622 6667 c-20 -6 -71 -46 -125 -97 l-91 -86 104 -110 c58 -60 130
-136 162 -169 l58 -60 99 101 c77 79 101 109 106 137 10 52 -1 85 -41 125 -32
32 -38 34 -84 30 l-50 -5 0 31 c0 25 -31 96 -42 96 -2 0 -17 4 -33 8 -17 5
-44 4 -63 -1z m42 -123 c25 -24 19 -53 -16 -86 l-31 -29 -36 35 -35 36 29 30
c32 33 65 38 89 14z m149 -122 c27 -23 21 -59 -17 -97 -18 -19 -38 -35 -43
-35 -13 0 -73 67 -73 80 0 12 56 63 78 71 19 7 28 4 55 -19z"/>
<path d="M6686 6494 l-29 -26 31 -31 32 -32 26 27 27 26 -22 31 c-12 17 -25
31 -29 31 -4 0 -20 -12 -36 -26z"/>
<path d="M6437 6378 c-168 -145 -192 -192 -147 -282 59 -119 161 -172 253
-132 32 14 277 221 277 235 0 4 -17 23 -37 43 l-38 36 -123 -108 c-67 -59
-133 -111 -147 -114 -55 -14 -113 44 -99 99 4 15 56 68 135 137 139 120 137
118 82 170 l-28 27 -128 -111z"/>
<path d="M6782 6377 l-22 -23 28 -32 27 -32 30 25 29 24 -20 28 c-27 36 -45
39 -72 10z"/>
<path d="M2750 6350 c0 -5 -6 -10 -13 -10 -18 0 -68 -72 -96 -139 -43 -102
-21 -167 80 -237 33 -22 40 -24 61 -13 22 11 22 11 8 -6 -13 -16 -11 -16 25 2
22 11 53 23 69 27 31 8 90 45 83 53 -3 2 -22 -7 -42 -22 -21 -14 -45 -25 -54
-25 -8 0 15 21 52 47 62 43 67 49 67 83 0 53 -18 100 -53 137 -40 43 -91 66
-126 58 -25 -5 -30 -2 -39 24 -11 30 -22 41 -22 21z m226 -195 c11 -27 -1 -33
-19 -9 -16 21 -16 24 -2 24 9 0 18 -7 21 -15z m-96 -64 c0 -22 -29 -36 -43
-22 -7 7 -6 15 3 26 17 21 40 19 40 -4z m-160 -81 c15 -11 29 -17 32 -15 2 2
17 0 34 -4 l29 -9 -33 -1 c-36 -1 -102 25 -102 40 0 13 9 11 40 -11z"/>
<path d="M4744 6289 c-36 -18 -49 -53 -34 -88 l12 -31 22 32 c31 46 71 72 111
72 23 0 32 3 25 10 -14 14 -112 18 -136 5z"/>
<path d="M4994 6273 c9 -9 86 -33 86 -26 0 6 -67 33 -81 33 -7 0 -9 -3 -5 -7z"/>
<path d="M1209 6178 c-203 -264 -362 -535 -479 -818 -308 -750 -351 -1570
-123 -2355 159 -548 475 -1077 893 -1495 585 -584 1325 -933 2160 -1016 282
-28 675 -12 955 40 554 102 1038 313 1488 649 175 130 417 347 417 373 0 11
-194 204 -205 204 -4 0 -44 -34 -89 -77 -566 -533 -1228 -828 -2001 -893 -545
-45 -1132 68 -1640 316 -1014 495 -1694 1470 -1805 2588 -15 146 -15 484 -1
621 66 627 288 1186 664 1667 l75 96 -106 89 c-59 49 -112 92 -119 96 -8 5
-38 -26 -84 -85z"/>
<path d="M4102 6223 c-7 -3 -19 -18 -27 -34 -9 -17 -24 -29 -35 -29 -11 0 -20
-6 -20 -13 0 -8 -17 -38 -38 -68 -55 -78 -89 -163 -101 -254 -7 -44 -14 -89
-16 -100 -4 -19 -11 -20 -172 -17 -255 5 -415 -20 -597 -93 -133 -54 -282
-142 -356 -210 -25 -24 -79 -70 -120 -104 -180 -149 -340 -400 -420 -659 -48
-157 -70 -310 -70 -496 0 -90 -3 -165 -6 -168 -3 -3 -22 11 -42 31 -20 20 -28
27 -18 14 11 -13 18 -24 15 -26 -50 -42 -125 -90 -167 -107 -29 -13 -51 -25
-48 -27 9 -9 120 48 172 87 l53 40 21 -28 c12 -15 18 -21 15 -14 -5 9 1 15 14
19 20 5 21 9 15 132 -27 534 231 1042 684 1350 85 58 264 145 358 174 168 53
391 76 586 60 l96 -8 13 80 c23 156 84 310 118 298 35 -13 51 -34 39 -53 -7
-10 -19 -16 -27 -13 -12 4 -13 2 -4 -4 17 -12 -35 -113 -57 -113 -11 0 -12 -2
-3 -8 9 -6 8 -18 -4 -52 -19 -53 -29 -296 -18 -455 l7 -103 47 -6 c63 -8 242
11 307 33 59 19 150 73 197 114 30 27 31 28 7 21 -14 -3 -46 -22 -73 -40 -62
-44 -70 -43 -15 2 46 39 74 66 48 47 -8 -5 -29 -9 -47 -8 -26 2 -45 -8 -105
-57 l-73 -60 57 55 c55 54 56 55 31 60 -32 6 -91 -18 -114 -46 -9 -12 -26 -33
-38 -47 l-22 -25 16 30 c8 17 23 41 32 55 15 22 16 23 1 12 -13 -10 -17 -10
-20 0 -7 18 -34 -6 -59 -51 -14 -26 -18 -29 -13 -11 4 14 13 34 20 45 19 27
17 40 -3 24 -11 -10 -14 -10 -9 -1 4 7 1 12 -9 12 -10 0 -24 -18 -36 -45 -25
-57 -31 -57 -14 0 9 27 10 47 4 50 -5 4 -9 0 -9 -7 0 -10 -2 -10 -9 1 -7 11
-10 10 -14 -5 -3 -11 -5 -5 -6 15 -1 29 -3 32 -16 21 -12 -10 -15 -9 -16 6 -1
14 -3 13 -9 -6 -10 -30 -13 162 -4 209 l7 31 178 0 c195 0 317 -14 467 -55
285 -77 515 -209 714 -409 146 -148 252 -323 320 -531 62 -186 73 -262 72
-505 0 -195 -2 -227 -27 -341 -65 -306 -204 -585 -412 -827 -200 -233 -411
-384 -666 -476 -125 -45 -228 -64 -379 -70 l-125 -5 128 14 c226 25 520 133
619 228 22 20 47 37 57 37 23 0 194 153 298 266 61 66 83 96 83 117 0 20 5 27
19 27 18 0 86 78 76 88 -2 2 -26 -4 -52 -13 -40 -15 -57 -30 -107 -97 -32 -44
-79 -101 -104 -129 -91 -102 -296 -259 -424 -326 -32 -17 -48 -32 -48 -44 0
-11 -7 -19 -17 -19 -15 0 -16 2 -3 10 12 8 11 10 -6 10 -27 0 -59 -24 -50 -38
4 -6 14 -8 24 -5 13 5 15 3 5 -7 -15 -17 -39 -7 -46 19 -4 16 2 22 29 31 19 7
34 16 34 21 0 5 7 9 15 9 35 0 194 98 310 190 100 80 339 341 324 354 -2 2
-33 -1 -68 -7 -60 -11 -66 -14 -110 -66 -25 -30 -66 -78 -91 -106 -25 -29 -52
-61 -61 -71 -36 -43 -181 -161 -258 -208 -24 -15 -75 -44 -115 -63 -39 -20
-77 -45 -85 -56 -10 -14 -15 -16 -21 -6 -7 10 -14 10 -39 0 -16 -7 -36 -11
-43 -8 -7 2 6 10 30 16 23 7 48 9 55 5 6 -5 5 1 -3 11 -14 17 -13 18 3 12 40
-15 334 166 416 257 l24 26 -31 0 c-32 0 -43 14 -19 23 9 4 8 8 -3 16 -13 9
-12 11 4 11 13 0 17 -5 13 -19 -3 -14 2 -20 19 -24 14 -2 27 0 30 4 3 5 0 9
-5 9 -6 0 -11 8 -11 18 0 14 2 15 10 2 6 -9 10 -11 10 -3 0 7 6 10 13 7 13 -5
87 73 151 158 l28 37 -30 -8 c-16 -5 -93 -14 -171 -21 l-142 -13 -56 -76 c-68
-92 -256 -284 -321 -327 -26 -18 -66 -42 -89 -53 -43 -21 -57 -53 -30 -65 6
-3 3 -4 -8 -3 -11 2 -19 9 -18 15 2 7 -2 12 -7 12 -26 0 -3 18 68 55 63 33
102 65 218 180 77 77 157 165 178 195 l36 55 -62 5 -63 5 77 9 c58 6 79 12 83
25 3 9 15 27 26 41 l20 25 -20 -41 -19 -40 61 3 c76 5 232 27 351 50 l90 18
42 65 c68 106 88 151 72 161 -10 7 -9 9 5 9 10 0 22 12 27 26 13 34 13 37 -5
30 -12 -4 -13 -2 -2 14 6 11 17 18 24 16 23 -9 123 366 123 462 0 43 -14 58
-42 45 -13 -7 -38 -15 -57 -19 -26 -5 -30 -9 -20 -16 10 -7 7 -8 -11 -4 -43
10 -141 -16 -151 -39 -4 -11 -8 -14 -8 -8 -1 15 -20 13 -143 -12 -62 -12 -89
-22 -92 -34 -16 -61 -27 -123 -22 -128 3 -3 12 -1 20 6 11 9 15 7 19 -9 3 -13
0 -20 -9 -20 -8 0 -14 -9 -14 -19 0 -14 -5 -18 -19 -14 -16 4 -22 -3 -31 -39
-6 -23 -15 -58 -20 -77 -10 -37 -4 -81 11 -81 5 0 9 -4 9 -10 0 -5 -9 -10 -21
-10 -16 0 -19 4 -14 23 7 26 -29 -38 -39 -70 -6 -17 -2 -22 16 -25 46 -7 -35
-13 -97 -7 l-60 6 62 1 62 2 -15 35 c-7 19 -14 42 -13 52 0 10 6 2 14 -17 l13
-35 11 30 c7 16 17 32 22 35 5 4 16 35 23 71 8 35 26 102 39 149 30 102 41
160 30 160 -4 0 -46 -7 -93 -15 -67 -12 -314 -44 -341 -45 -3 0 -6 -7 -6 -15
0 -8 4 -15 9 -15 12 0 10 -28 -3 -36 -6 -3 -18 1 -27 10 -14 14 -15 19 -3 38
11 18 11 20 -4 14 -9 -3 -28 -6 -41 -6 -20 0 -24 -5 -24 -27 1 -26 2 -27 15
-9 13 17 35 15 35 -4 0 -16 -58 -22 -79 -8 -24 15 -29 40 -6 32 8 -4 15 -1 15
5 0 6 -16 11 -35 11 -40 0 -39 1 -23 -37 17 -42 18 -182 1 -176 -7 3 -13 20
-13 37 0 18 -5 37 -12 44 -9 9 -8 15 5 24 14 11 14 19 4 56 l-11 43 -101 -6
c-124 -9 -148 -25 -151 -105 -2 -27 2 -52 7 -55 15 -10 10 -25 -7 -18 -14 5
-15 -3 -12 -61 1 -36 0 -66 -3 -66 -3 0 -10 -29 -15 -64 -6 -36 -6 -63 -2 -60
4 3 17 0 28 -6 17 -9 18 -14 9 -31 -6 -13 -18 -19 -32 -17 -17 2 -22 -2 -20
-17 1 -11 -4 -47 -12 -80 -7 -33 -15 -84 -18 -112 l-4 -53 44 0 c27 0 42 -4
38 -10 -3 -5 1 -10 10 -10 9 0 14 4 11 9 -5 7 92 16 274 25 41 2 63 2 47 -1
-30 -5 -28 -23 3 -23 13 0 17 -5 13 -18 -3 -14 -11 -18 -30 -14 -18 3 -21 7
-12 13 11 7 11 11 1 21 -10 10 -16 9 -29 -5 -16 -16 -16 -18 2 -33 18 -14 18
-15 2 -10 -22 7 -67 -3 -67 -15 0 -4 51 -10 113 -12 l112 -3 -117 -2 -118 -2
-34 -68 c-39 -77 -127 -198 -171 -234 -52 -42 -105 -81 -105 -75 0 2 24 23 54
45 29 23 82 78 116 124 61 80 150 245 150 277 0 14 -14 16 -96 13 -71 -3 -97
-7 -101 -18 -3 -8 -16 -14 -30 -14 -21 0 -24 -4 -21 -27 2 -19 10 -29 28 -34
25 -6 24 -6 -5 -10 -22 -3 -31 -10 -33 -26 -3 -19 0 -21 32 -13 20 4 36 4 36
0 0 -9 -36 -20 -68 -20 -18 0 -21 4 -17 23 3 12 6 43 8 68 2 25 7 51 11 58 6
9 0 10 -21 5 -35 -9 -40 -16 -48 -73 -6 -44 -69 -326 -81 -364 -3 -10 -8 -17
-10 -14 -2 2 5 39 15 83 21 84 55 250 66 322 l7 42 -51 0 c-28 0 -51 5 -51 10
0 6 25 10 55 10 l55 0 0 38 c1 20 7 78 14 127 15 95 10 111 -26 99 -13 -4 -18
0 -18 13 0 10 -3 29 -6 43 -4 18 -3 21 4 11 8 -11 10 -11 15 0 3 8 6 -1 6 -18
1 -35 21 -47 21 -13 0 11 7 20 15 20 8 0 14 3 13 8 -1 4 2 33 6 65 6 40 4 67
-4 88 -10 24 -10 32 0 42 10 9 12 9 7 -4 -3 -9 -1 -22 4 -30 7 -10 9 -2 7 26
-1 22 1 46 5 52 4 7 -1 14 -12 18 -12 3 -18 12 -15 20 8 21 -26 12 -46 -13 -9
-11 -33 -23 -52 -27 -19 -4 -40 -10 -46 -14 -10 -6 -12 -131 -12 -527 1 -285
1 -557 0 -604 -1 -122 -3 -120 78 -104 37 8 144 19 237 24 196 11 263 24 400
75 214 80 384 194 570 381 250 251 428 563 500 879 91 394 40 837 -131 1153
-70 128 -116 192 -206 287 -231 244 -504 387 -893 466 -90 19 -147 23 -310 24
l-200 2 4 24 c16 113 100 275 169 327 77 57 80 89 14 139 -45 34 -48 35 -70
26z m36 -33 c15 -12 38 -29 51 -39 30 -22 20 -41 -22 -41 -45 0 -77 25 -77 59
0 46 10 50 48 21z m-18 -84 c22 -14 22 -16 5 -16 -26 1 -68 36 -60 50 5 8 11
7 18 -3 7 -8 23 -21 37 -31z m-58 -46 c26 -15 29 -20 15 -26 -17 -6 -71 29
-60 40 9 8 9 8 45 -14z m1345 -2066 c-3 -3 -12 -4 -19 -1 -8 3 -5 6 6 6 11 1
17 -2 13 -5z m-77 -69 c0 -8 -9 -15 -20 -15 -20 0 -26 11 -13 23 12 13 33 7
33 -8z m-616 -71 c8 -20 -1 -34 -20 -34 -20 0 -30 30 -13 41 20 12 26 11 33
-7z m-51 -24 c3 -14 1 -20 -6 -17 -7 2 -14 14 -15 26 -4 28 13 20 21 -9z
m-353 -10 c-8 -5 -28 -9 -45 -9 l-30 1 30 8 c17 4 37 8 45 9 13 1 13 0 0 -9z
m1090 -32 c0 -5 -4 -8 -10 -8 -5 0 -10 10 -10 23 0 18 2 19 10 7 5 -8 10 -18
10 -22z m75 -27 c0 -27 -3 -47 -7 -44 -13 7 -7 93 6 93 0 0 1 -22 1 -49z
m-1148 7 c-3 -7 -5 -2 -5 12 0 14 2 19 5 13 2 -7 2 -19 0 -25z m848 1 c-8 -24
4 -25 21 -1 12 15 15 15 24 2 6 -10 10 -11 10 -2 0 6 12 12 27 12 48 0 5 -27
-54 -34 l-52 -7 2 29 c1 19 6 28 15 25 7 -3 10 -13 7 -24z m181 8 c14 5 20
-17 8 -30 -13 -13 -34 7 -33 32 1 15 3 19 6 9 2 -10 10 -15 19 -11z m168 -13
c8 -22 9 -22 -19 -16 -20 3 -23 7 -14 18 15 18 25 18 33 -2z m-404 -15 c0 -5
-7 -9 -15 -9 -9 0 -12 6 -9 15 6 15 24 11 24 -6z m190 11 c0 -5 -4 -10 -10
-10 -5 0 -10 5 -10 10 0 6 5 10 10 10 6 0 10 -4 10 -10z m128 -2 c-3 -7 -12
-14 -22 -14 -15 -2 -15 -2 0 3 14 4 14 7 3 14 -11 7 -10 9 4 9 11 0 17 -6 15
-12z m-566 -28 c5 -31 -6 -41 -16 -15 -5 13 1 45 9 45 1 0 5 -13 7 -30z m-232
5 c13 -16 7 -45 -9 -45 -6 0 -8 6 -5 14 3 8 1 17 -5 21 -13 8 -15 25 -2 25 5
0 14 -7 21 -15z m54 4 c-3 -6 0 -15 7 -20 20 -13 29 -11 29 6 0 8 5 15 10 15
6 0 10 -9 10 -20 0 -24 8 -25 32 -3 16 14 18 14 18 1 0 -18 -43 -32 -71 -23
-10 4 -19 2 -19 -3 0 -15 -41 -2 -47 15 -3 7 0 20 7 28 14 17 35 20 24 4z
m-204 -8 c0 -14 32 -22 45 -11 9 8 14 5 18 -10 5 -18 1 -20 -46 -19 -29 0 -46
3 -40 6 9 3 10 10 3 24 -8 15 -7 19 5 19 8 0 15 -4 15 -9z m118 -19 c2 -7 -6
-12 -17 -12 -21 0 -27 11 -14 24 9 9 26 2 31 -12z m-538 -56 c0 -3 -4 -8 -10
-11 -5 -3 -10 -1 -10 4 0 6 5 11 10 11 6 0 10 -2 10 -4z m15 -25 c-3 -6 -11
-11 -16 -11 -5 0 -4 6 3 14 14 16 24 13 13 -3z m-35 -11 c0 -5 8 -10 18 -10
11 0 13 -3 6 -8 -7 -4 -14 -16 -16 -27 -4 -17 -7 -15 -18 12 -17 47 -27 33
-21 -29 5 -45 3 -56 -15 -76 l-22 -22 2 85 1 85 33 0 c17 0 32 -4 32 -10z
m-70 -63 c0 -21 -3 -36 -8 -33 -4 2 -6 -14 -4 -37 2 -32 1 -38 -7 -27 -12 16
-15 119 -5 145 10 26 24 -2 24 -48z m602 -44 c-31 -4 -33 -6 -30 -41 2 -29 8
-38 28 -44 l25 -8 -27 4 c-21 2 -27 -2 -31 -21 -5 -29 4 -36 39 -27 19 5 25 4
20 -5 -4 -6 -23 -11 -42 -11 l-34 0 0 80 0 80 43 -2 c37 -1 38 -2 9 -5z m295
-20 c2 -6 -13 -9 -34 -8 -20 0 -39 7 -41 13 -3 9 7 12 34 9 21 -2 40 -9 41
-14z m377 -34 c-14 -28 -28 -48 -32 -44 -10 10 -31 85 -22 80 5 -3 12 -20 16
-38 l7 -32 18 43 c10 23 22 42 28 42 5 0 -2 -23 -15 -51z m-504 1 c0 -5 -8
-10 -17 -10 -15 0 -16 2 -3 10 19 12 20 12 20 0z m596 3 c-15 -4 -16 -7 -5
-14 11 -7 11 -9 -3 -9 -9 0 -19 4 -22 9 -7 10 11 20 34 19 9 0 7 -2 -4 -5z
m-1158 -25 c17 -17 15 -93 -3 -108 -18 -15 -20 -1 -4 34 10 20 9 30 -5 50 -9
14 -16 28 -16 31 0 9 16 5 28 -7z m477 -24 c7 2 15 -4 18 -15 4 -15 2 -19 -9
-15 -8 3 -14 1 -14 -5 0 -6 -4 -7 -10 -4 -5 3 -9 21 -9 38 1 18 3 24 6 14 3
-10 11 -16 18 -13z m93 19 c-10 -2 -26 -2 -35 0 -10 3 -2 5 17 5 19 0 27 -2
18 -5z m-500 -11 c12 10 14 9 10 -7 -2 -11 3 -25 12 -32 13 -11 11 -12 -12
-13 -16 0 -28 -5 -28 -11 0 -5 -4 -7 -10 -4 -5 3 -10 23 -10 43 0 27 3 33 12
24 9 -9 15 -9 26 0z m636 2 c11 -4 14 -13 10 -29 -4 -17 -1 -24 13 -28 10 -3
4 -5 -14 -6 -34 -1 -43 15 -21 37 9 9 9 12 0 12 -7 0 -12 5 -12 10 0 12 3 12
24 4z m-874 -44 c0 -5 -14 -10 -31 -10 -17 0 -28 4 -24 10 3 6 17 10 31 10 13
0 24 -4 24 -10z m538 -247 c-2 -10 2 -18 9 -18 29 0 23 -15 -6 -15 -26 0 -32
3 -27 16 3 9 6 20 6 25 0 5 5 9 10 9 6 0 10 -8 8 -17z m462 -12 c0 -5 -41 -12
-90 -16 -50 -4 -93 -12 -97 -19 -4 -6 -6 -40 -4 -76 2 -56 1 -63 -11 -50 -10
11 -13 34 -10 81 l4 67 76 9 c105 14 132 14 132 4z m-143 -73 c-3 -7 -5 -2 -5
12 0 14 2 19 5 13 2 -7 2 -19 0 -25z m62 8 c0 -11 -3 -15 -6 -8 -2 6 -13 12
-24 12 -28 0 -23 15 6 16 20 2 25 -3 24 -20z m-621 -23 c-10 -2 -26 -2 -35 0
-10 3 -2 5 17 5 19 0 27 -2 18 -5z m652 -13 c0 -6 -26 -9 -62 -8 l-63 1 50 7
c28 4 56 8 63 8 6 1 12 -2 12 -8z m-655 -10 c3 -5 -3 -10 -14 -10 -12 0 -21 5
-21 10 0 6 6 10 14 10 8 0 18 -4 21 -10z m471 -9 c9 8 11 5 7 -11 -3 -11 -8
-19 -11 -16 -2 3 -14 0 -26 -6 -19 -10 -20 -10 -8 5 8 9 10 22 6 29 -5 10 -4
10 6 1 10 -9 17 -9 26 -2z m-320 -42 c-6 -31 -5 -31 24 -25 17 3 30 2 30 -3 0
-9 -69 -25 -76 -18 -3 2 1 17 8 31 10 23 9 29 -3 37 -11 7 -10 9 5 9 15 0 17
-5 12 -31z m-210 1 c8 0 14 -6 14 -13 0 -7 -9 -13 -20 -13 -11 0 -20 5 -20 11
0 5 -4 4 -9 -4 -6 -9 -11 -10 -15 -2 -10 16 4 33 21 27 8 -3 21 -6 29 -6z m64
-336 c0 -15 6 -24 15 -24 8 0 15 5 15 10 0 16 27 12 34 -5 4 -12 -3 -15 -29
-15 -24 0 -37 -6 -45 -19 -15 -29 -13 -31 23 -26 19 3 12 -1 -18 -10 -27 -8
-59 -13 -70 -11 -15 2 -14 4 5 5 16 1 29 10 36 26 10 21 9 24 -10 28 -16 3
-14 5 8 6 27 1 28 3 23 36 -3 21 -2 33 4 30 5 -4 9 -17 9 -31z m-88 -5 c-25
-9 -30 -29 -8 -29 8 0 18 -4 21 -10 4 -6 -9 -10 -32 -10 -21 0 -33 4 -28 8 6
4 11 16 10 27 0 25 12 34 38 27 20 -5 20 -5 -1 -13z m-199 -13 c-10 -14 -26
-27 -35 -29 -19 -5 -25 8 -8 18 6 4 7 11 4 17 -4 7 -2 8 4 4 7 -4 20 -2 29 3
26 15 26 14 6 -13z m40 7 c-14 -5 -18 -33 -5 -33 5 0 23 7 39 15 32 16 77 10
51 -6 -11 -7 -10 -11 2 -19 12 -8 11 -10 -7 -10 -16 0 -21 4 -17 15 4 10 0 15
-15 15 -12 0 -21 -4 -21 -10 0 -15 -47 -12 -53 4 -6 15 11 36 28 35 5 0 4 -3
-2 -6z m382 -12 c-3 -5 0 -13 7 -17 15 -10 -26 -25 -47 -18 -16 6 -11 24 6 24
6 0 7 -4 4 -10 -3 -5 -1 -10 5 -10 7 0 9 8 5 20 -5 14 -2 20 10 20 9 0 14 -4
10 -9z m99 -5 c-3 -8 -19 -14 -40 -14 -43 0 -43 5 -1 17 45 13 47 13 41 -3z
m-157 -42 c-3 -3 -12 -4 -19 -1 -8 3 -5 6 6 6 11 1 17 -2 13 -5z m-184 -41
c-7 -2 -21 -2 -30 0 -10 3 -4 5 12 5 17 0 24 -2 18 -5z m-60 -10 c-7 -2 -19
-2 -25 0 -7 3 -2 5 12 5 14 0 19 -2 13 -5z m-34 -47 c-2 -2 -26 -6 -54 -9 -32
-4 -43 -3 -30 3 19 8 93 14 84 6z"/>
<path d="M5043 6219 c9 -5 17 -15 17 -20 0 -6 9 -18 20 -27 21 -18 41 -80 22
-68 -6 3 -13 20 -17 36 -8 38 -25 39 -25 2 0 -16 -9 -39 -20 -52 -11 -13 -20
-27 -20 -32 0 -4 -7 -8 -16 -8 -8 0 -13 -4 -9 -9 3 -5 -3 -12 -12 -14 -10 -3
5 -5 32 -6 63 -1 132 29 145 63 9 24 0 76 -18 103 -4 7 -27 19 -51 28 -49 17
-75 19 -48 4z"/>
<path d="M6725 5954 c-99 -63 -187 -118 -194 -123 -13 -8 -10 -16 12 -50 15
-23 29 -41 32 -41 3 0 62 36 132 80 69 44 128 78 131 76 3 -4 -48 -103 -83
-161 -7 -11 -29 -51 -49 -88 l-36 -68 27 -42 c14 -23 27 -44 29 -46 4 -4 394
238 394 245 0 2 -11 22 -25 44 l-25 40 -107 -65 c-58 -36 -108 -63 -110 -61
-3 2 25 58 61 124 36 66 66 126 66 133 0 12 -66 120 -73 118 -1 0 -83 -52
-182 -115z"/>
<path d="M1948 6030 c-9 -6 -52 -50 -97 -100 -62 -69 -81 -97 -80 -118 l1 -27
7 27 c7 31 27 56 124 156 71 71 77 80 45 62z"/>
<path d="M1987 6023 c4 -10 2 -14 -4 -10 -6 4 -25 -10 -44 -31 -18 -20 -51
-56 -73 -79 -27 -30 -34 -43 -22 -43 9 0 16 8 16 17 0 22 6 14 14 -19 4 -18 2
-28 -4 -28 -6 0 -8 5 -5 10 4 6 -6 10 -24 10 -21 0 -34 -7 -42 -22 -11 -20
-10 -21 3 -10 13 10 17 10 22 -3 4 -10 -1 -15 -14 -15 -11 0 -20 -7 -20 -15 0
-17 26 -20 35 -5 5 8 11 7 21 -1 11 -9 14 -8 14 5 0 9 -4 16 -10 16 -5 0 -10
10 -9 23 l0 22 9 -22 c5 -13 14 -23 19 -23 11 0 44 45 55 75 5 15 9 16 15 6 5
-7 14 -10 20 -7 16 10 14 26 -4 26 -8 0 -15 7 -15 15 0 8 7 15 15 15 8 0 15
-6 15 -12 0 -9 3 -8 10 2 5 8 6 17 2 20 -4 3 -12 15 -19 26 -10 19 -9 23 10
29 12 4 26 7 30 6 4 -1 3 8 -3 19 -13 24 -22 27 -13 3z m-54 -105 c-3 -15 -14
-30 -25 -34 -12 -3 -17 -11 -14 -20 3 -9 1 -12 -4 -9 -16 10 -12 45 5 45 8 0
15 6 15 13 0 12 21 40 26 34 1 -1 0 -14 -3 -29z"/>
<path d="M3964 5984 c-8 -20 -13 -38 -11 -41 3 -2 11 11 18 31 7 19 17 32 22
29 6 -3 7 -1 3 5 -11 18 -16 15 -32 -24z"/>
<path d="M5085 5999 c-23 -11 -64 -19 -95 -19 l-55 0 70 -39 69 -40 12 35 c7
20 20 44 30 55 24 27 16 29 -31 8z"/>
<path d="M1980 5983 c1 -14 30 -47 36 -41 6 7 -17 48 -28 48 -5 0 -8 -3 -8 -7z"/>
<path d="M2010 5983 c0 -6 5 -15 11 -18 12 -8 8 -155 -4 -155 -5 0 -7 27 -5
60 1 33 0 60 -3 60 -15 0 -30 -30 -25 -48 5 -15 -2 -21 -34 -32 -32 -10 -40
-18 -40 -37 0 -17 -6 -23 -21 -23 -11 0 -17 -4 -14 -10 3 -5 0 -11 -7 -11 -7
-1 -20 -3 -28 -4 -8 -1 -23 -3 -33 -4 -16 -1 -18 -10 -16 -74 2 -40 0 -78 -5
-85 -4 -6 -2 -12 3 -12 6 0 11 7 11 15 0 9 7 18 15 21 8 4 15 11 15 16 0 6 -7
8 -15 4 -17 -6 -20 9 -4 20 8 4 7 9 -2 15 -11 7 -10 11 6 23 22 17 55 21 55 7
0 -5 -7 -11 -15 -15 -8 -3 -15 0 -15 6 0 8 -3 9 -10 2 -5 -5 -7 -20 -3 -33 4
-16 8 -19 14 -10 4 8 11 10 16 6 4 -5 1 -12 -6 -16 -7 -5 -10 -14 -7 -20 4 -6
2 -11 -3 -11 -6 0 -11 -13 -11 -28 0 -15 -5 -33 -12 -40 -19 -19 3 -14 25 6
19 16 20 16 14 -1 -4 -11 -3 -16 4 -12 5 4 15 2 22 -4 7 -5 30 -12 50 -14 21
-2 44 -12 53 -23 14 -18 15 -18 8 6 -4 14 -15 37 -25 51 -10 14 -16 29 -14 33
3 3 2 4 -2 1 -3 -3 -15 2 -25 11 -13 13 -15 20 -7 30 11 14 42 7 33 -7 -3 -5
-10 -6 -16 -3 -7 4 -8 2 -4 -5 4 -6 11 -9 16 -6 4 3 10 -1 13 -9 3 -8 17 -33
32 -55 22 -36 28 -40 46 -31 17 9 18 14 8 26 -9 11 -14 12 -19 3 -5 -7 -10 -8
-14 -1 -3 6 -1 12 6 14 7 3 9 12 5 22 -4 9 -11 14 -17 11 -6 -4 -7 -12 -4 -18
5 -9 3 -9 -6 0 -10 9 -10 16 -2 25 13 16 -1 44 -17 34 -16 -11 -25 22 -11 39
21 25 0 17 -42 -16 -21 -17 -41 -29 -44 -26 -10 9 -12 57 -3 63 5 3 4 14 -2
25 -13 26 -5 49 18 49 16 -1 16 -2 -2 -16 -16 -12 -17 -16 -6 -23 9 -6 11 -18
7 -34 -7 -31 10 -46 19 -17 3 11 13 20 21 20 8 0 14 5 14 11 0 5 -5 7 -11 3
-6 -3 -15 0 -20 7 -14 22 -10 32 9 24 14 -5 15 -4 5 6 -17 17 -16 29 0 29 8 0
13 -11 13 -27 -1 -21 4 -28 19 -28 27 -1 50 28 28 36 -12 4 -10 9 11 22 26 17
26 17 26 -8 0 -14 2 -25 4 -25 2 0 42 23 89 50 90 53 97 56 97 40 0 -5 -6 -10
-14 -10 -19 0 -28 -14 -20 -34 4 -11 13 -15 26 -10 13 4 18 2 14 -4 -3 -6 -1
-14 5 -17 17 -11 22 1 10 24 -8 14 -17 18 -29 14 -15 -6 -16 -5 -2 11 14 17
16 17 40 -15 36 -47 63 -76 54 -59 -8 15 -71 107 -84 123 -4 4 -40 -13 -80
-38 -106 -65 -104 -66 -100 65 1 45 -3 71 -14 85 -8 11 -16 15 -16 8z m-20
-152 c0 -12 -20 -25 -27 -18 -7 7 6 27 18 27 5 0 9 -4 9 -9z m-51 -32 c-16
-10 -23 -4 -14 10 3 6 11 8 17 5 6 -4 5 -9 -3 -15z m51 -9 c-24 -15 -37 -11
-16 5 11 8 22 12 25 9 3 -3 -1 -9 -9 -14z m-140 -50 c0 -5 -5 -10 -11 -10 -5
0 -7 5 -4 10 3 6 8 10 11 10 2 0 4 -4 4 -10z m-30 -14 c0 -3 -4 -8 -10 -11 -5
-3 -10 -1 -10 4 0 6 5 11 10 11 6 0 10 -2 10 -4z m109 -141 c30 -35 39 -50 24
-42 -19 10 -49 20 -63 21 -8 1 -14 6 -13 13 2 7 -4 10 -12 7 -17 -7 -18 -3 -9
20 10 26 40 18 73 -19z"/>
<path d="M3931 5894 c0 -11 3 -14 6 -6 3 7 2 16 -1 19 -3 4 -6 -2 -5 -13z"/>
<path d="M6001 5805 c12 -42 8 -185 -5 -177 -5 3 -7 -2 -3 -11 3 -10 2 -17 -2
-17 -5 0 -11 -7 -15 -15 -9 -24 19 -17 50 13 16 15 37 43 45 61 15 30 15 36
-5 84 -27 65 -33 75 -56 87 -17 9 -18 7 -9 -25z m26 -87 c-3 -8 -6 -5 -6 6 -1
11 2 17 5 13 3 -3 4 -12 1 -19z"/>
<path d="M4218 5803 c7 -3 16 -2 19 1 4 3 -2 6 -13 5 -11 0 -14 -3 -6 -6z"/>
<path d="M2130 5785 c-7 -8 -18 -15 -26 -15 -17 0 -28 -20 -17 -31 10 -10 83
35 83 51 0 15 -26 12 -40 -5z"/>
<path d="M2202 5761 c2 -7 7 -12 11 -12 12 1 9 15 -3 20 -7 2 -11 -2 -8 -8z"/>
<path d="M2157 5753 c-10 -10 -8 -25 2 -19 5 4 11 0 14 -6 3 -10 7 -10 17 -1
7 6 9 16 6 22 -8 12 -29 15 -39 4z"/>
<path d="M2240 5745 c-19 -23 5 -48 31 -34 20 10 17 30 -4 25 -7 -1 -9 -1 -4
1 10 6 9 23 -2 23 -5 0 -14 -7 -21 -15z"/>
<path d="M2043 5735 c-7 -20 2 -29 21 -22 9 4 13 13 10 22 -8 19 -23 19 -31 0z"/>
<path d="M6120 5635 c-85 -63 -180 -135 -211 -160 -31 -25 -61 -45 -66 -45 -5
0 -22 -14 -38 -30 -16 -17 -53 -47 -82 -67 -29 -20 -53 -39 -53 -43 0 -4 32
-35 70 -70 66 -58 72 -61 89 -46 10 9 22 16 27 16 5 0 23 14 41 30 18 17 35
30 38 30 8 0 226 161 299 221 17 14 70 53 118 88 97 69 105 78 88 94 -9 9 -11
9 -8 -2 2 -7 -3 -16 -10 -18 -7 -3 -10 1 -7 10 3 7 -2 20 -12 28 -16 12 -17
12 -6 -1 6 -9 11 -24 9 -34 -3 -21 -96 -97 -110 -89 -5 3 -6 2 -3 -4 4 -6 -5
-15 -18 -21 -21 -10 -26 -8 -35 9 -6 11 -16 16 -22 13 -7 -5 -4 -13 10 -24 21
-17 20 -18 -76 -92 -120 -92 -122 -93 -122 -73 0 9 5 13 10 10 6 -3 10 -2 10
4 0 20 -19 21 -25 1 -3 -11 -13 -20 -22 -20 -12 0 -13 3 -4 14 14 16 0 29 -21
21 -8 -3 -24 6 -36 20 l-23 26 23 20 c13 10 31 17 41 15 19 -5 21 2 8 23 -7
12 -19 7 -58 -25 -93 -76 -244 -186 -249 -181 -5 5 40 40 261 206 256 191 346
262 333 261 -2 0 -73 -52 -158 -115z m-175 -252 c20 -20 34 -42 31 -49 -3 -7
0 -15 7 -17 14 -5 -19 -34 -102 -89 -30 -20 -59 -34 -64 -31 -6 3 -7 1 -3 -5
3 -6 2 -13 -2 -16 -5 -3 -26 13 -48 35 -30 31 -34 40 -19 37 11 -2 19 -10 18
-16 -2 -7 4 -12 13 -12 8 0 12 -4 9 -10 -7 -11 8 -14 18 -4 3 4 -5 15 -18 26
-14 11 -25 26 -25 34 0 12 -4 12 -20 2 -14 -9 -22 -10 -31 -1 -8 8 -5 13 11
18 19 6 53 33 111 87 35 33 62 32 81 -2 16 -29 38 -33 38 -9 0 6 -5 7 -12 3
-7 -4 -8 -3 -4 4 4 7 1 12 -9 12 -9 0 -13 5 -10 10 3 6 1 10 -4 10 -6 0 -11 5
-11 10 0 16 7 12 45 -27z m80 -53 c-3 -5 -10 -10 -16 -10 -5 0 -9 5 -9 10 0 6
7 10 16 10 8 0 12 -4 9 -10z"/>
<path d="M5875 5373 c7 -24 -10 -33 -18 -10 -4 10 -7 10 -18 0 -11 -11 -10
-13 6 -13 15 0 16 -3 7 -12 -9 -9 -15 -9 -23 -1 -8 8 -19 4 -40 -14 -25 -23
-32 -52 -8 -37 5 3 7 10 4 15 -4 5 1 9 9 9 9 0 16 -5 16 -11 0 -6 7 -17 15
-25 8 -8 19 -23 24 -32 5 -9 13 -14 16 -10 4 4 -7 24 -24 45 -44 53 -39 66 7
15 26 -30 41 -39 51 -33 9 6 10 11 2 15 -6 4 -11 4 -11 0 0 -4 -9 1 -20 11
-25 23 -25 37 0 52 16 11 21 9 34 -8 8 -12 19 -20 25 -18 5 2 -6 22 -25 44
-27 30 -34 34 -29 18z"/>
<path d="M5945 5340 c-3 -5 -4 -14 -1 -19 3 -5 -1 -14 -8 -20 -11 -9 -17 -8
-29 9 -9 13 -20 18 -31 14 -12 -5 -14 -10 -6 -20 7 -7 17 -11 24 -8 8 3 16 -2
20 -12 6 -15 8 -14 25 5 10 11 21 18 25 14 3 -3 6 -1 6 5 0 5 -6 13 -12 15
-10 4 -10 6 0 6 14 1 17 21 3 21 -6 0 -13 -4 -16 -10z"/>
<path d="M5777 5274 c-11 -12 3 -23 20 -17 10 4 14 2 10 -4 -7 -10 29 -50 38
-42 5 6 -44 69 -54 69 -4 0 -11 -3 -14 -6z"/>
<path d="M6194 5660 c-63 -47 -134 -100 -160 -119 l-47 -34 29 -11 28 -12 -24
-17 c-14 -9 -29 -17 -35 -17 -21 0 -35 -17 -29 -33 9 -25 26 -20 19 6 -5 20
-3 19 18 -7 14 -16 30 -26 36 -21 7 4 17 3 24 -3 12 -9 62 10 52 20 -3 2 7 11
23 19 15 7 35 21 45 31 17 18 17 19 -2 47 -12 16 -21 36 -21 45 0 9 -5 16 -11
16 -7 0 -9 -9 -6 -22 6 -24 -28 -77 -40 -64 -4 4 -2 10 4 14 8 5 8 12 -2 26
-13 17 -14 17 -36 -3 -12 -11 -26 -18 -31 -15 -10 6 16 28 77 64 43 26 66 44
97 73 11 10 23 16 26 12 4 -4 -6 -17 -23 -30 -16 -13 -27 -27 -24 -30 8 -8 39
5 39 16 0 5 7 9 15 9 10 0 12 6 8 18 -6 15 -5 15 10 4 14 -12 14 -16 2 -28 -7
-8 -18 -14 -24 -14 -5 0 -18 -11 -29 -25 -19 -24 -35 -25 -26 0 3 7 1 16 -5
19 -17 11 -21 -11 -8 -38 l14 -25 21 20 c12 11 22 18 22 15 0 -2 15 9 34 26
33 29 34 32 19 54 -8 13 -19 21 -24 18 -18 -11 -8 12 13 30 17 15 25 17 40 7
14 -9 23 -9 33 -1 7 6 16 7 19 2 3 -5 -4 -16 -14 -25 -18 -15 -20 -15 -30 4
-9 16 -14 18 -26 8 -19 -16 -18 -33 3 -25 9 4 20 2 23 -5 7 -11 19 -7 59 20
23 15 -11 43 -44 35 -34 -8 -32 9 3 23 26 10 26 10 3 9 -14 0 -73 -37 -137
-86z m-112 -153 c-17 -20 9 -46 41 -40 22 4 25 8 16 19 -7 8 -7 14 -1 14 5 0
15 -7 22 -15 10 -12 8 -16 -11 -24 -13 -5 -37 -21 -52 -35 -34 -31 -52 -34
-37 -6 6 11 18 20 27 20 13 0 14 3 5 12 -9 9 -15 8 -25 -7 -8 -10 -19 -15 -25
-11 -6 3 -14 1 -18 -5 -5 -8 -3 -9 6 -4 8 5 11 4 6 -3 -7 -12 -36 -5 -36 8 0
4 17 16 38 26 20 9 31 19 25 21 -27 9 -11 39 21 42 5 1 4 -5 -2 -12z"/>
<path d="M2112 5728 c-17 -17 -15 -28 6 -22 14 5 14 4 2 -4 -9 -7 -18 -7 -26
-1 -6 5 -19 7 -28 3 -18 -7 -18 -7 -10 -28 9 -22 28 -20 75 10 38 24 40 26 22
39 -22 18 -26 18 -41 3z"/>
<path d="M1769 5718 c0 -7 -2 -37 -4 -67 -2 -34 0 -49 6 -40 8 13 11 119 3
119 -2 0 -4 -6 -5 -12z"/>
<path d="M2003 5703 c-10 -21 -9 -31 3 -54 12 -25 18 -28 34 -19 11 6 20 14
20 19 0 16 -30 33 -47 27 -15 -6 -15 -4 2 14 11 12 15 24 9 30 -5 5 -14 -1
-21 -17z m37 -43 c0 -5 -5 -10 -11 -10 -5 0 -7 5 -4 10 3 6 8 10 11 10 2 0 4
-4 4 -10z"/>
<path d="M2191 5706 c-17 -20 13 -43 34 -26 20 16 19 34 -1 26 -8 -3 -12 -2
-9 4 9 15 -11 12 -24 -4z"/>
<path d="M2290 5707 c-33 -16 -51 -33 -42 -42 4 -5 -1 -5 -10 -2 -23 8 -23 2
3 -40 14 -22 27 -32 36 -29 8 3 17 6 19 6 2 0 4 7 4 16 0 11 -6 14 -22 9 -18
-5 -20 -4 -8 4 8 6 10 11 5 11 -6 0 -11 9 -12 21 -2 17 1 18 13 8 18 -15 37 0
39 31 1 11 1 20 1 19 -1 0 -12 -6 -26 -12z"/>
<path d="M2151 5681 c-12 -8 -13 -12 -1 -26 12 -14 15 -14 28 -1 8 8 11 19 8
25 -9 13 -16 14 -35 2z"/>
<path d="M2307 5658 c-18 -9 -18 -11 4 -34 17 -18 25 -21 36 -13 20 17 16 28
-9 22 -18 -4 -20 -3 -8 6 22 15 1 33 -23 19z"/>
<path d="M2369 5643 c23 -34 27 -53 10 -53 -5 0 -7 5 -3 12 7 11 -36 -12 -96
-52 -23 -16 -26 -15 -42 1 -16 17 -16 19 -1 27 16 9 10 32 -8 32 -6 0 -8 -4
-4 -9 3 -5 0 -13 -6 -17 -8 -4 -9 -3 -5 4 4 7 2 12 -3 12 -18 0 -12 -22 12
-48 21 -23 22 -24 3 -38 -17 -12 -21 -11 -32 4 -8 11 -9 21 -2 29 12 15 2 33
-20 33 -15 0 -15 -2 -2 -11 13 -9 13 -10 -2 -6 -28 10 -29 -6 -2 -34 23 -24
25 -31 14 -44 -16 -20 -6 -19 26 1 13 9 27 14 30 11 3 -3 -13 -15 -36 -27 -23
-12 -39 -17 -35 -11 3 6 1 11 -6 11 -8 0 -8 4 2 16 8 10 9 18 3 22 -6 4 -14
16 -18 26 -5 15 -9 17 -18 8 -7 -7 -20 -12 -30 -12 -10 0 -18 -5 -18 -11 0 -6
7 -8 16 -5 10 4 13 2 8 -6 -5 -7 -2 -9 8 -5 16 6 43 -35 31 -47 -13 -13 -24
-5 -18 14 4 12 2 20 -5 20 -6 0 -8 -5 -4 -12 5 -8 2 -9 -9 -5 -9 3 -19 2 -22
-3 -3 -5 5 -12 17 -16 20 -6 21 -7 4 -20 -10 -7 -15 -17 -11 -23 9 -16 -11
-13 -25 3 -6 8 -19 12 -27 9 -10 -4 -14 -2 -10 4 3 5 -14 26 -38 47 -25 20
-45 33 -45 27 0 -5 5 -13 10 -16 16 -10 0 -27 -21 -22 -12 3 -19 0 -19 -9 0
-8 6 -11 15 -8 8 4 23 0 32 -7 15 -12 16 -11 11 9 -4 12 -3 22 0 22 12 0 74
-80 63 -80 -6 0 -11 -7 -11 -15 0 -8 -6 -15 -14 -15 -8 0 -17 -5 -19 -10 -3
-6 -4 -5 -3 2 2 7 -1 21 -6 31 -8 17 -7 18 14 12 29 -9 22 -2 -20 18 -18 8
-29 11 -26 5 5 -7 2 -9 -8 -6 -9 4 -15 0 -15 -8 0 -8 9 -14 19 -14 10 0 18 -7
18 -15 0 -14 -17 -20 -46 -16 -11 1 -20 -28 -27 -84 -1 -11 -11 -21 -22 -22
-11 -2 -14 0 -7 3 6 3 12 13 12 22 0 12 -3 13 -8 5 -17 -26 -87 7 -79 38 2 8
2 11 0 6 -3 -4 -9 -5 -13 -2 -5 3 -24 -4 -42 -16 -23 -14 -26 -19 -10 -14 15
4 24 2 28 -9 3 -9 10 -13 15 -10 5 3 6 10 3 16 -4 7 -2 8 4 4 7 -4 12 -13 12
-20 0 -27 40 -65 73 -68 25 -2 35 -10 47 -35 19 -40 69 -56 114 -37 14 5 17 4
12 -4 -10 -16 15 -15 38 3 10 7 15 18 11 24 -10 17 -44 13 -67 -9 -23 -21 -48
-12 -48 17 0 9 -5 11 -12 7 -9 -6 -9 -3 0 9 12 14 16 15 29 2 8 -8 22 -15 30
-15 14 0 14 3 -2 20 -10 11 -15 23 -10 28 4 4 9 3 12 -3 2 -5 8 -17 13 -25 8
-12 12 -13 19 -2 6 11 14 8 35 -14 25 -28 26 -28 58 -12 18 9 42 19 52 22 14
5 16 10 8 18 -6 6 -18 7 -29 3 -10 -5 -28 -8 -41 -8 -18 0 -20 -3 -11 -13 6
-8 7 -14 2 -14 -5 0 -15 11 -21 25 -12 25 -11 25 27 19 21 -3 41 -2 44 3 7 10
-39 83 -51 83 -5 0 -13 -5 -19 -11 -9 -9 -16 -7 -29 6 -17 17 -17 17 3 11 13
-4 23 -2 26 8 8 21 -2 26 -29 16 -21 -8 -24 -7 -24 15 0 13 5 27 10 30 6 4 8
11 5 16 -4 5 -1 9 5 9 6 0 10 -7 8 -16 -2 -9 17 -37 42 -63 45 -48 66 -74 85
-104 6 -9 34 -50 63 -92 28 -42 52 -80 52 -84 0 -4 -17 -15 -37 -25 -21 -10
-53 -30 -73 -46 l-35 -28 -28 24 c-16 13 -25 24 -21 24 3 0 -4 9 -17 20 -21
17 -22 19 -6 20 10 0 15 5 12 10 -5 8 -11 8 -20 0 -9 -8 -20 -1 -41 27 -16 21
-28 41 -26 46 1 4 -5 7 -13 7 -8 0 -15 -3 -15 -6 0 -11 83 -106 130 -151 l45
-42 25 24 c14 13 47 36 75 52 27 16 51 36 53 44 1 8 -16 41 -38 74 -21 33 -40
66 -40 73 0 6 -4 12 -10 12 -6 0 -9 3 -8 8 2 13 -14 42 -22 37 -11 -7 -123
136 -113 145 4 4 74 50 154 102 81 53 149 100 153 106 4 6 -7 26 -25 44 l-31
33 21 -32z m1 -58 c0 -7 -121 -87 -126 -82 -2 2 24 23 58 45 66 44 68 45 68
37z m-230 -155 c-14 -11 -29 -20 -35 -20 -5 0 1 9 15 20 14 11 30 20 35 20 6
0 -1 -9 -15 -20z m-104 -110 c1 -30 1 -30 -14 -9 -12 18 -13 23 -1 30 8 5 14
9 14 9 0 0 0 -14 1 -30z m-84 -32 c11 -16 15 -28 9 -28 -6 0 -11 5 -11 10 0
16 -20 12 -27 -6 -7 -18 17 -38 31 -24 4 4 15 6 24 2 11 -4 14 -1 9 11 -7 19
8 23 19 5 4 -6 2 -14 -4 -16 -7 -2 -12 -11 -12 -20 0 -15 -2 -15 -10 -2 -9 13
-12 13 -21 -2 -5 -10 -20 -17 -32 -17 -17 1 -18 2 -4 6 9 2 17 8 17 13 0 5 -7
7 -15 4 -11 -5 -15 1 -15 24 0 42 13 99 18 82 3 -8 14 -27 24 -42z m48 38 c0
-3 -4 -8 -10 -11 -5 -3 -10 -1 -10 4 0 6 5 11 10 11 6 0 10 -2 10 -4z m73 -56
c6 -23 37 -27 37 -4 0 8 5 12 10 9 19 -12 10 -31 -21 -42 -21 -8 -28 -16 -23
-25 6 -11 4 -11 -7 0 -12 11 -12 14 1 22 13 8 13 11 -2 26 -13 14 -20 15 -31
5 -12 -9 -16 -8 -21 5 -4 12 -2 15 9 11 8 -4 17 -2 20 3 10 16 22 11 28 -10z
m-243 -20 c0 -5 -2 -10 -4 -10 -3 0 -8 5 -11 10 -3 6 -1 10 4 10 6 0 11 -4 11
-10z m324 -16 c3 -8 2 -12 -4 -9 -6 3 -10 10 -10 16 0 14 7 11 14 -7z m-104
-15 c0 -5 -4 -9 -10 -9 -5 0 -10 7 -10 16 0 8 5 12 10 9 6 -3 10 -10 10 -16z"/>
<path d="M6363 5663 c-7 -3 -13 -10 -13 -17 0 -18 -33 -16 -47 3 -11 14 -12
14 -13 -1 0 -10 4 -18 8 -18 5 0 14 -12 20 -26 7 -14 17 -22 23 -18 8 5 8 8 0
14 -9 5 -7 11 4 20 13 11 18 11 25 1 5 -9 10 -10 14 -3 3 6 1 14 -5 18 -8 5
-8 9 1 14 14 9 0 19 -17 13z"/>
<path d="M2090 5650 c-14 -9 -7 -14 13 -11 5 1 5 -3 2 -9 -4 -6 -14 -9 -22 -6
-21 9 -53 -12 -47 -29 4 -8 11 -15 16 -15 6 0 8 7 5 14 -4 10 -1 13 8 10 17
-7 76 27 72 41 -5 14 -29 17 -47 5z"/>
<path d="M2186 5647 c-11 -8 -15 -19 -10 -30 7 -20 15 -21 37 -4 13 10 14 15
3 29 -11 15 -16 15 -30 5z"/>
<path d="M3872 5640 c0 -14 2 -19 5 -12 2 6 2 18 0 25 -3 6 -5 1 -5 -13z"/>
<path d="M2132 5616 c-20 -11 -21 -14 -8 -31 14 -19 16 -19 31 -4 26 25 8 52
-23 35z"/>
<path d="M3874 5510 c3 -58 8 -121 11 -140 l4 -35 -10 35 c-6 19 -21 68 -32
109 -19 63 -26 75 -45 76 -28 2 -23 -18 24 -95 53 -86 40 -82 -17 5 -51 78
-72 105 -84 105 -3 0 -3 -5 1 -11 4 -8 -1 -9 -16 -4 -21 7 -20 3 11 -39 56
-77 64 -94 21 -46 -23 25 -46 44 -52 42 -7 -1 -9 2 -6 7 3 5 -5 16 -19 25 -23
15 -24 15 -18 -1 5 -13 3 -15 -12 -9 -13 4 -9 -4 12 -26 40 -42 95 -107 112
-133 8 -11 -9 5 -37 35 -28 30 -51 49 -52 41 0 -18 -11 -8 -14 13 -2 16 -48
56 -64 56 -14 0 -9 -28 8 -43 11 -9 11 -8 0 8 -14 18 -14 19 3 6 9 -7 17 -17
17 -22 0 -5 27 -41 60 -81 33 -39 58 -74 55 -77 -4 -3 -10 1 -15 9 -40 70
-185 199 -203 181 -7 -7 14 -33 64 -81 l74 -72 -83 71 c-76 65 -108 80 -100
46 5 -21 110 -104 163 -129 75 -35 163 -63 224 -71 l54 -7 -7 63 c-4 35 -11
113 -17 173 -5 61 -12 112 -16 115 -3 3 -3 -41 1 -99z m-65 -145 c0 -5 -6 1
-14 15 -8 14 -14 30 -14 35 0 6 6 -1 14 -15 8 -14 14 -29 14 -35z"/>
<path d="M6281 5596 c-7 -9 -10 -24 -7 -33 6 -17 5 -17 -8 0 -10 13 -16 15
-21 7 -4 -7 0 -19 9 -28 15 -15 18 -15 26 -2 6 8 8 24 6 35 -5 19 -4 19 9 2 9
-13 15 -15 20 -7 4 7 1 18 -7 26 -13 13 -16 13 -27 0z"/>
<path d="M7137 5594 c-26 -14 -27 -16 -12 -43 l14 -28 -129 -62 c-125 -59
-160 -70 -160 -53 0 5 -6 16 -13 26 -13 17 -15 17 -45 2 l-32 -16 25 -55 c14
-30 36 -80 50 -110 27 -59 30 -61 70 -43 25 11 26 17 8 64 -4 10 61 45 206
109 61 28 64 28 77 11 7 -11 15 -24 17 -29 4 -13 67 11 67 25 0 21 -95 218
-105 218 -5 -1 -22 -8 -38 -16z"/>
<path d="M2073 5583 c-18 -12 -21 -19 -12 -35 10 -19 11 -19 32 -1 11 10 17
12 13 6 -4 -7 -3 -13 3 -13 18 0 20 15 3 37 -16 20 -19 20 -39 6z"/>
<path d="M2290 5590 c-12 -8 -11 -10 8 -10 12 0 22 5 22 10 0 13 -11 13 -30 0z"/>
<path d="M7295 5588 c-11 -6 -22 -12 -23 -14 -5 -4 36 -94 43 -94 9 0 65 30
65 35 0 3 -7 23 -16 45 -17 42 -33 48 -69 28z"/>
<path d="M2245 5571 c-6 -11 9 -23 19 -14 9 9 7 23 -3 23 -6 0 -12 -4 -16 -9z"/>
<path d="M6102 5558 c-7 -9 -6 -17 3 -25 9 -8 16 -9 20 -3 3 6 2 10 -4 10 -6
0 -8 7 -5 15 7 18 0 20 -14 3z"/>
<path d="M2200 5530 c0 -5 5 -10 10 -10 6 0 10 5 10 10 0 6 -4 10 -10 10 -5 0
-10 -4 -10 -10z"/>
<path d="M6184 5519 c-7 -11 13 -29 31 -28 6 0 4 3 -3 6 -6 2 -10 9 -7 13 3 5
1 11 -4 14 -5 4 -13 1 -17 -5z"/>
<path d="M1690 5496 c-7 -14 -18 -23 -24 -20 -6 2 -74 -39 -151 -92 -77 -52
-168 -114 -202 -137 -35 -23 -63 -47 -63 -54 0 -6 17 -33 38 -60 20 -26 55
-74 76 -105 22 -32 42 -58 44 -58 6 0 154 100 291 196 47 32 87 66 89 74 3 8
-15 -1 -39 -20 -24 -20 -57 -37 -72 -38 -33 -2 -47 -9 -47 -23 0 -6 7 -6 19 1
43 22 31 8 -24 -31 -56 -39 -82 -47 -50 -16 9 10 11 18 5 22 -6 4 -8 11 -5 16
7 11 26 12 22 2 -1 -5 1 -9 6 -10 11 -4 10 -1 -4 30 -14 30 -36 31 -31 1 2
-18 2 -18 -9 0 -9 14 -8 20 2 26 10 7 10 11 0 24 -15 17 -36 22 -26 6 3 -6 -1
-7 -9 -4 -11 4 -16 0 -16 -10 0 -9 7 -19 15 -22 8 -4 15 -11 15 -17 0 -6 7
-18 16 -28 14 -16 15 -20 1 -33 -8 -8 -17 -12 -21 -9 -3 4 -6 1 -6 -5 0 -7 8
-12 18 -12 14 0 12 -4 -8 -20 -30 -23 -48 -26 -30 -5 24 29 3 26 -30 -5 -18
-16 -37 -30 -42 -30 -6 0 -8 -6 -5 -14 8 -21 -16 -39 -31 -24 -19 19 -14 32 5
17 19 -15 -31 76 -54 99 -18 19 -16 29 8 35 12 3 19 11 17 17 -2 6 -8 10 -13
8 -6 -2 -9 -7 -7 -11 1 -5 -2 -6 -8 -2 -5 3 -10 1 -10 -6 0 -7 -8 -5 -20 6
-24 21 -26 45 -5 45 8 0 14 -3 14 -7 -3 -20 2 -24 16 -13 12 10 13 16 4 26
-16 19 -33 17 -53 -4 -15 -18 -14 -21 15 -61 17 -24 28 -45 26 -47 -3 -3 -21
18 -42 46 -21 28 -36 52 -34 54 2 1 41 28 87 60 82 57 83 57 106 39 l23 -19
-22 -26 c-13 -15 -26 -24 -31 -20 -4 4 -4 -2 0 -12 5 -15 4 -17 -7 -8 -10 9
-17 8 -25 0 -7 -7 -12 -8 -12 -2 0 6 4 14 10 20 5 5 6 15 0 23 -7 12 -11 12
-24 2 -21 -17 -20 -23 5 -52 11 -13 27 -36 35 -52 12 -23 18 -26 34 -17 11 6
20 18 20 26 0 12 -7 15 -27 10 l-28 -6 22 19 c12 10 19 22 15 26 -4 5 -1 5 6
1 18 -10 38 4 21 15 -10 6 -10 9 -2 9 7 0 10 7 6 17 -4 11 -3 14 6 9 7 -5 10
-14 7 -22 -6 -15 4 -11 43 15 20 13 -4 42 -27 34 -15 -6 -15 -4 -4 10 8 9 22
19 33 22 20 7 26 30 10 39 -15 10 -42 -5 -39 -22 2 -8 -3 -17 -9 -19 -7 -3
-13 0 -13 7 0 8 -6 8 -20 0 -34 -18 -22 -4 23 26 23 16 72 50 110 76 69 50 88
59 67 33 -19 -23 5 -48 30 -33 21 13 16 32 -6 24 -8 -3 -11 0 -7 10 3 7 9 14
13 14 8 0 22 41 16 47 -1 2 -8 -8 -16 -21z m-283 -301 c0 -8 -4 -15 -9 -15
-10 0 -11 14 -1 23 9 10 10 9 10 -8z m-17 -170 c-1 -5 -12 4 -25 20 -14 17
-25 35 -25 40 1 6 12 -3 25 -20 14 -16 25 -34 25 -40z m90 5 c-33 -26 -49 -26
-19 0 13 10 29 19 34 19 6 1 -1 -8 -15 -19z"/>
<path d="M2042 5511 c-9 -5 -11 -17 -7 -34 6 -22 9 -24 21 -13 7 8 19 16 26
18 10 4 10 8 -1 21 -15 19 -20 20 -39 8z"/>
<path d="M1760 5500 c-8 -5 -12 -12 -9 -15 4 -3 12 1 19 10 14 17 11 19 -10 5z"/>
<path d="M1787 5476 c-4 -10 -7 -25 -7 -33 0 -13 2 -13 17 -2 14 12 16 12 8 0
-5 -10 -4 -12 3 -7 15 9 15 18 -1 40 -13 18 -14 18 -20 2z"/>
<path d="M2060 5451 c0 -14 18 -23 31 -15 8 4 7 9 -2 15 -18 11 -29 11 -29 0z"/>
<path d="M1612 5417 c-6 -7 -7 -19 -3 -26 7 -10 13 -11 30 -1 18 9 20 14 10
26 -14 17 -23 18 -37 1z"/>
<path d="M1730 5420 c0 -5 5 -10 11 -10 5 0 7 5 4 10 -3 6 -8 10 -11 10 -2 0
-4 -4 -4 -10z"/>
<path d="M1693 5413 c-14 -5 -18 -39 -5 -47 4 -2 16 2 27 10 17 12 17 16 5 28
-8 7 -21 12 -27 9z"/>
<path d="M1566 5387 c-27 -19 -15 -52 13 -37 30 16 38 12 12 -6 l-22 -16 22
-24 c12 -13 18 -24 13 -24 -5 0 -2 -5 6 -10 19 -12 31 -12 49 -1 12 8 12 12 2
25 -18 21 -32 20 -25 -1 5 -15 4 -15 -4 -3 -7 9 -7 18 -1 26 6 8 5 14 -6 18
-8 3 -15 0 -15 -6 0 -6 -3 -8 -6 -5 -4 4 -2 12 4 19 8 10 6 19 -6 36 -15 20
-20 21 -36 9z"/>
<path d="M1655 5380 c3 -6 -1 -7 -9 -4 -23 9 -20 -9 11 -55 l27 -41 23 22 c21
20 22 23 8 37 -12 12 -17 13 -27 3 -17 -17 -33 -15 -19 2 12 15 5 46 -11 46
-5 0 -6 -4 -3 -10z"/>
<path d="M1830 5380 c0 -5 5 -10 10 -10 6 0 10 5 10 10 0 6 -4 10 -10 10 -5 0
-10 -4 -10 -10z"/>
<path d="M1727 5368 c-17 -9 -18 -11 -1 -29 19 -21 29 -18 45 14 7 12 8 19 4
15 -5 -4 -13 -4 -19 1 -7 6 -18 6 -29 -1z"/>
<path d="M1857 5314 c-19 -26 -11 -32 16 -11 9 6 13 17 9 23 -5 8 -13 4 -25
-12z"/>
<path d="M1543 5309 c-15 -15 -5 -39 16 -39 25 0 32 10 20 31 -11 22 -20 24
-36 8z"/>
<path d="M7127 5175 c-103 -78 -190 -145 -193 -148 -3 -3 2 -30 12 -60 l17
-54 150 -6 c83 -4 194 -7 248 -7 l98 0 -18 53 -18 52 -168 5 -167 5 131 95
c74 54 131 102 131 111 0 19 -20 81 -29 91 -3 3 -91 -58 -194 -137z"/>
<path d="M1406 5277 c-15 -11 -16 -15 -4 -25 11 -9 19 -9 32 1 15 11 16 15 4
25 -11 9 -19 9 -32 -1z"/>
<path d="M1695 5279 c-3 -3 2 -12 10 -19 12 -10 18 -10 30 0 9 7 13 15 10 18
-8 9 -45 10 -50 1z"/>
<path d="M1580 5260 c0 -5 -7 -7 -16 -3 -14 5 -14 3 -3 -16 8 -11 20 -21 27
-21 7 0 10 4 7 10 -3 5 0 7 8 4 23 -9 30 14 8 25 -24 14 -31 14 -31 1z"/>
<path d="M1664 5262 c-17 -12 -22 -37 -10 -53 15 -21 72 -6 81 21 4 11 10 18
15 15 5 -3 11 -1 15 5 3 5 -1 10 -10 10 -8 0 -18 -6 -21 -14 -6 -15 -50 -10
-61 7 -4 6 -1 7 7 2 9 -5 11 -4 6 3 -8 14 -8 14 -22 4z m41 -42 c-3 -5 -13
-10 -21 -10 -8 0 -12 5 -9 10 3 6 13 10 21 10 8 0 12 -4 9 -10z"/>
<path d="M1606 5218 c-13 -8 -15 -13 -5 -24 13 -16 19 -17 38 -5 22 14 -9 42
-33 29z"/>
<path d="M1470 5195 c-10 -12 -10 -18 0 -31 12 -13 15 -13 28 0 15 15 10 46
-6 46 -5 0 -15 -7 -22 -15z"/>
<path d="M5290 5171 c0 -25 4 -32 15 -28 8 4 17 1 21 -6 4 -7 4 -9 -1 -5 -12
11 -35 -11 -35 -34 0 -12 9 -22 21 -25 11 -3 18 -11 15 -18 -2 -7 4 -19 15
-28 10 -9 19 -23 19 -31 0 -8 3 -16 8 -18 7 -3 67 -102 89 -148 61 -129 125
-328 122 -384 -1 -11 -7 8 -15 44 -18 84 -59 207 -96 290 -33 74 -109 200
-120 200 -4 0 -14 15 -22 33 -24 51 -50 77 -75 70 -11 -3 -21 -1 -21 5 0 6 8
13 18 15 14 4 13 5 -4 6 -11 0 -29 11 -40 24 -10 12 -12 16 -4 10 8 -7 18 -13
23 -13 8 0 -5 14 -33 37 -13 10 -16 4 -18 -48 -2 -40 1 -59 8 -59 7 0 10 7 6
15 -3 9 0 15 10 15 11 0 15 -6 11 -20 -3 -10 0 -21 7 -23 8 -3 8 -8 0 -16 -9
-9 -19 -5 -43 19 -17 17 -31 26 -31 20 0 -18 -23 -6 -26 14 -4 26 -8 27 -22 6
-10 -17 -10 -20 3 -20 8 0 15 -4 15 -9 0 -5 -18 -8 -39 -7 -34 0 -38 3 -30 18
5 9 14 20 19 23 17 11 11 31 -10 32 -11 1 -20 -4 -20 -12 0 -8 -9 -19 -20 -25
-14 -7 -20 -7 -20 0 0 5 -7 10 -16 10 -13 0 -14 -3 -5 -14 10 -12 7 -18 -18
-31 -34 -17 -62 -9 -80 23 -10 16 -10 16 -11 -1 0 -19 62 -87 80 -87 7 0 9 -8
5 -20 -5 -16 -3 -19 12 -13 15 6 16 4 6 -8 -9 -11 -9 -19 -2 -26 8 -8 4 -17
-12 -32 l-22 -20 24 -10 c30 -11 9 -22 -36 -18 -21 2 -30 8 -29 20 1 9 -2 14
-7 11 -5 -3 -9 -12 -9 -21 0 -12 -3 -13 -14 -4 -10 9 -15 8 -18 -1 -7 -20 2
-38 19 -38 9 0 13 -6 10 -14 -4 -11 -1 -11 18 -2 16 7 20 13 12 18 -7 4 -7 8
-2 8 20 0 34 -16 26 -29 -5 -7 -14 -10 -20 -7 -6 4 -11 2 -11 -3 0 -6 5 -11
12 -11 9 0 9 -3 1 -11 -11 -11 -11 -13 61 -197 20 -52 36 -102 36 -113 0 -10
7 -19 15 -19 8 0 15 -4 15 -10 0 -5 -6 -10 -12 -10 -9 0 -8 -4 2 -10 12 -7 8
-10 -15 -10 -16 0 -25 4 -19 8 14 8 -19 127 -42 149 -8 8 -12 19 -9 23 3 5 1
17 -4 27 -5 10 -17 35 -26 55 -14 33 -40 58 -59 58 -3 0 -6 -9 -6 -20 0 -15 7
-20 26 -20 14 0 23 -4 19 -10 -4 -6 -9 -9 -13 -6 -4 2 -16 0 -27 -5 -17 -6
-17 -8 -2 -8 15 -1 17 -12 17 -80 0 -82 -3 -90 -50 -121 -12 -8 -29 -21 -37
-29 -14 -13 -17 -13 -29 3 -14 19 -34 14 -34 -10 0 -8 -7 -14 -16 -14 -8 0
-13 4 -9 10 3 5 -7 5 -25 -1 -48 -17 -35 -29 31 -29 37 0 58 -4 54 -10 -3 -5
-37 -10 -76 -10 -65 0 -69 -1 -68 -22 1 -17 2 -19 6 -5 6 24 22 21 35 -8 10
-22 12 -23 23 -8 20 27 28 -3 9 -33 l-18 -26 -18 24 -19 23 6 -22 c5 -18 1
-25 -19 -33 -19 -7 -25 -17 -28 -45 -2 -19 -6 -34 -11 -33 -12 5 -49 -63 -43
-78 8 -20 44 -17 68 6 26 24 36 13 30 -30 -5 -34 -22 -41 -22 -10 0 11 -4 20
-10 20 -5 0 -10 -4 -10 -10 0 -13 -36 -13 -61 0 -11 6 -19 21 -19 36 0 17 -5
24 -12 21 -7 -2 -22 -1 -33 4 -18 7 -18 8 5 9 l25 1 -23 10 c-13 5 -27 7 -32
4 -14 -9 -40 -73 -40 -100 0 -19 -4 -26 -14 -22 -9 4 -12 0 -9 -12 6 -25 -14
-71 -32 -71 -8 0 -15 -7 -15 -16 0 -14 -8 -16 -42 -11 -23 3 -36 2 -29 -2 10
-6 5 -11 -15 -19 l-29 -9 37 -8 c21 -4 59 -2 85 4 47 10 47 10 -21 6 -38 -3
-66 -2 -63 2 11 11 152 21 162 11 6 -6 3 -7 -7 -3 -11 4 -18 2 -18 -4 0 -15
16 -14 40 2 17 10 22 9 29 -1 6 -11 25 -11 97 -3 49 6 121 13 159 16 86 7 288
33 322 41 l26 7 -7 121 c-4 67 -14 153 -22 191 -17 83 -18 105 -4 105 6 0 10
-13 10 -29 0 -15 4 -41 9 -57 5 -16 12 -55 16 -87 4 -31 11 -55 16 -52 5 4 9
-5 9 -19 0 -14 -3 -26 -7 -26 -5 0 -7 -33 -5 -73 l3 -73 81 17 c45 10 84 23
88 29 5 8 10 9 14 2 3 -6 15 -8 26 -5 19 5 25 19 44 106 9 38 -6 41 -104 23
-98 -19 -118 -20 -104 -6 6 6 52 16 102 22 109 14 108 13 117 156 5 80 3 102
-7 102 -9 0 -9 3 2 10 30 19 33 9 26 -104 -6 -98 -5 -118 9 -140 10 -14 23
-26 30 -26 7 0 36 -10 65 -22 44 -18 53 -19 61 -7 7 12 9 11 9 -2 0 -25 27
-44 43 -30 8 6 17 8 20 4 4 -3 8 38 9 93 l2 99 5 -88 c3 -48 11 -87 16 -87 6
0 25 5 43 11 37 12 36 5 22 186 -21 266 -94 492 -230 706 -26 42 -46 64 -50
57 -5 -8 -9 -4 -13 9 -6 26 -24 27 -30 4 -3 -10 -5 0 -6 23 -1 32 -8 47 -36
74 l-35 34 0 -33z m-280 -252 c0 -10 5 -19 12 -19 18 0 -1 -14 -21 -15 -22 -2
-37 45 -18 57 16 10 27 0 27 -23z m490 -33 c0 -6 -11 -11 -25 -11 -28 0 -30 7
-14 37 11 21 12 21 25 3 8 -10 14 -24 14 -29z m-84 -27 c3 -6 -8 -4 -24 5 -17
9 -33 20 -37 25 -3 5 8 3 25 -5 16 -9 32 -20 36 -25z m-91 -86 c-3 -16 -7 -38
-7 -50 0 -29 -14 -30 -28 -2 -17 30 -3 79 22 79 17 0 19 -4 13 -27z m-306 -17
c8 -9 10 -28 5 -51 -5 -27 -2 -41 11 -55 23 -26 11 -39 -14 -16 -15 13 -20 14
-24 4 -2 -7 -7 -11 -10 -8 -8 8 -17 109 -10 126 7 18 27 18 42 0z m208 -31 c3
-9 -2 -24 -11 -34 -9 -10 -16 -26 -16 -37 -1 -19 -1 -19 -15 0 -15 20 -20 67
-8 79 12 13 44 7 50 -8z m-92 -25 c4 -6 -8 -10 -29 -10 -20 0 -36 5 -36 10 0
6 13 10 29 10 17 0 33 -4 36 -10z m215 -10 c0 -6 -23 -9 -52 -8 l-53 1 45 7
c25 4 48 8 53 8 4 1 7 -2 7 -8z m230 -10 c-13 -8 -12 -11 4 -23 23 -17 15 -47
-11 -47 -17 1 -16 1 1 12 18 10 18 11 -5 29 -20 16 -22 20 -9 29 8 5 20 10 25
10 6 0 3 -5 -5 -10z m-460 -10 c0 -5 -11 -10 -25 -10 -14 0 -25 5 -25 10 0 6
11 10 25 10 14 0 25 -4 25 -10z m196 -25 c-3 -8 -1 -15 5 -15 6 0 9 -10 7 -22
-3 -24 -48 -40 -48 -18 0 6 4 9 9 5 18 -11 24 18 7 31 -20 14 -13 34 11 34 9
0 13 -6 9 -15z m193 -175 c-1 -41 -2 -42 -9 -15 -4 17 -8 44 -9 60 0 23 2 26
9 15 5 -8 9 -35 9 -60z m-126 -4 c7 -18 -1 -26 -25 -26 -18 0 -25 20 -11 33
11 12 31 8 36 -7z m-247 -46 c8 0 14 -9 13 -22 0 -13 -3 -17 -6 -10 -4 10 -8
10 -19 1 -12 -10 -14 -3 -13 37 1 29 4 38 6 22 2 -16 11 -28 19 -28z m-166 15
c0 -14 -7 -28 -15 -31 -8 -4 -15 -16 -15 -28 0 -17 -2 -18 -10 -6 -5 8 -10 32
-10 53 0 33 3 37 25 37 20 0 25 -5 25 -25z m130 -32 c0 -20 -3 -24 -11 -16 -7
7 -9 19 -6 27 10 24 17 19 17 -11z m284 2 c3 -8 1 -15 -4 -15 -6 0 -10 7 -10
15 0 8 2 15 4 15 2 0 6 -7 10 -15z m203 -22 c-3 -10 -5 -4 -5 12 0 17 2 24 5
18 2 -7 2 -21 0 -30z m-517 13 c0 -11 -19 -15 -25 -6 -3 5 1 10 9 10 9 0 16
-2 16 -4z m245 -16 c-3 -5 -11 -10 -16 -10 -6 0 -7 5 -4 10 3 6 11 10 16 10 6
0 7 -4 4 -10z m95 -38 c0 -15 -2 -15 -10 -2 -13 20 -13 33 0 25 6 -3 10 -14
10 -23z m187 -34 c-2 -13 -4 -5 -4 17 -1 22 1 32 4 23 2 -10 2 -28 0 -40z
m-355 -20 c-7 -7 -12 -8 -12 -2 0 14 12 26 19 19 2 -3 -1 -11 -7 -17z m198 1
c0 -6 -4 -7 -10 -4 -5 3 -10 11 -10 16 0 6 5 7 10 4 6 -3 10 -11 10 -16z
m-250 -73 c0 -2 -7 -9 -15 -16 -13 -11 -14 -10 -9 4 5 14 24 23 24 12z m285
-16 c3 -5 1 -10 -4 -10 -6 0 -11 5 -11 10 0 6 2 10 4 10 3 0 8 -4 11 -10z
m-330 -49 c-3 -6 -11 -11 -17 -11 -6 0 -6 6 2 15 14 17 26 13 15 -4z m355 4
c0 -8 -2 -15 -4 -15 -2 0 -6 7 -10 15 -3 8 -1 15 4 15 6 0 10 -7 10 -15z
m-703 -7 c5 13 23 17 23 5 0 -5 -7 -17 -15 -27 -14 -19 -15 -19 -35 -1 -23 21
-16 42 8 23 12 -10 16 -10 19 0z m99 -24 c-4 -10 1 -22 11 -29 15 -11 15 -15
4 -29 -7 -9 -23 -16 -35 -16 -20 1 -20 2 -3 14 21 16 22 26 2 26 -21 0 -19 27
3 39 23 14 25 14 18 -5z m-199 -10 c4 -10 -1 -22 -10 -29 -10 -7 -17 -20 -17
-29 0 -29 -17 -17 -24 16 -5 25 -2 36 11 45 23 17 32 16 40 -3z m-217 -34 c0
-14 -7 -20 -23 -20 -16 0 -23 6 -23 20 0 14 7 20 23 20 16 0 23 -6 23 -20z
m323 10 c31 0 38 -3 27 -10 -23 -15 -64 -12 -86 6 -17 14 -17 15 -1 10 10 -3
37 -6 60 -6z m372 -20 c3 -5 1 -10 -4 -10 -6 0 -11 5 -11 10 0 6 2 10 4 10 3
0 8 -4 11 -10z m-378 -30 c-3 -13 0 -20 9 -20 8 0 14 -4 14 -10 0 -13 -57 -13
-65 -1 -3 6 3 14 12 20 10 6 12 11 6 11 -22 0 -14 20 8 20 16 0 20 -5 16 -20z
m423 -10 c0 -5 -2 -10 -4 -10 -3 0 -8 5 -11 10 -3 6 -1 10 4 10 6 0 11 -4 11
-10z"/>
<path d="M5300 4765 c0 -8 2 -15 4 -15 2 0 6 7 10 15 3 8 1 15 -4 15 -6 0 -10
-7 -10 -15z"/>
<path d="M5002 4710 c0 -14 2 -19 5 -12 2 6 2 18 0 25 -3 6 -5 1 -5 -13z"/>
<path d="M4940 4429 c0 -5 5 -7 10 -4 6 3 10 8 10 11 0 2 -4 4 -10 4 -5 0 -10
-5 -10 -11z"/>
<path d="M2177 5163 c-33 -17 -26 -36 10 -27 18 5 24 3 19 -5 -4 -6 -16 -11
-26 -11 -27 0 -34 -17 -15 -37 11 -11 13 -18 5 -23 -6 -4 -8 -14 -4 -23 5 -13
2 -16 -9 -11 -12 4 -15 14 -10 36 5 24 3 29 -7 23 -9 -5 -11 -4 -6 3 11 18 -6
14 -34 -8 -14 -10 -22 -22 -18 -26 4 -4 14 -2 22 5 11 9 15 8 20 -5 3 -8 6
-23 6 -31 0 -9 11 -26 25 -39 24 -22 25 -22 47 -4 13 10 19 22 15 26 -4 5 -11
4 -15 -2 -8 -12 -42 -15 -42 -3 0 4 10 9 22 11 25 4 37 28 14 28 -21 0 -20 9
5 36 l21 23 -21 -6 c-13 -3 -21 -1 -21 7 0 7 6 10 13 7 6 -2 23 0 37 5 24 9
24 10 7 23 -10 7 -18 16 -18 19 4 30 -1 31 -42 9z"/>
<path d="M1506 5157 c-11 -8 -15 -19 -10 -30 8 -21 27 -22 44 -2 18 22 -11 49
-34 32z"/>
<path d="M1985 5160 c3 -5 8 -10 11 -10 2 0 4 5 4 10 0 6 -5 10 -11 10 -5 0
-7 -4 -4 -10z"/>
<path d="M1383 5137 c4 -11 2 -14 -9 -10 -10 4 -12 0 -8 -11 4 -10 12 -15 19
-12 8 3 11 -2 9 -12 -5 -24 22 -56 41 -49 24 10 18 29 -7 22 -18 -6 -20 -4
-12 5 9 9 8 19 -3 41 -16 31 -41 53 -30 26z"/>
<path d="M4817 5143 c-4 -3 -7 -11 -7 -17 0 -6 5 -5 12 2 6 6 9 14 7 17 -3 3
-9 2 -12 -2z"/>
<path d="M2087 5125 c-50 -17 -54 -22 -36 -41 14 -13 18 -13 40 4 13 11 34 22
47 26 12 4 20 12 17 17 -8 12 -22 11 -68 -6z"/>
<path d="M4900 5125 c-7 -8 -10 -22 -6 -30 11 -30 35 -27 72 10 24 25 29 33
14 25 -16 -9 -25 -9 -33 -1 -15 15 -32 14 -47 -4z"/>
<path d="M5141 5124 c0 -11 3 -14 6 -6 3 7 2 16 -1 19 -3 4 -6 -2 -5 -13z"/>
<path d="M1439 5114 c-10 -12 -9 -18 4 -31 15 -15 18 -15 37 2 14 12 17 22 10
29 -16 16 -38 15 -51 0z"/>
<path d="M5370 5110 c0 -5 5 -10 11 -10 5 0 7 5 4 10 -3 6 -8 10 -11 10 -2 0
-4 -4 -4 -10z"/>
<path d="M2242 5103 c-18 -7 -4 -23 16 -17 10 4 13 3 6 -3 -6 -4 -14 -15 -17
-23 -4 -12 -6 -11 -6 3 -1 11 -7 17 -17 15 -8 -2 -14 -7 -12 -13 2 -5 6 -9 10
-8 4 2 5 -3 3 -10 -3 -6 -1 -19 5 -27 7 -12 12 -12 22 -2 9 9 8 12 -7 12 -18
0 -18 0 1 15 25 19 35 19 28 0 -4 -8 -1 -15 5 -15 14 0 14 22 -1 55 -12 26
-14 27 -36 18z"/>
<path d="M4830 5100 c0 -5 5 -10 11 -10 5 0 7 5 4 10 -3 6 -8 10 -11 10 -2 0
-4 -4 -4 -10z"/>
<path d="M4730 5090 c-9 -6 -10 -10 -3 -10 6 0 15 5 18 10 8 12 4 12 -15 0z"/>
<path d="M4770 5092 c0 -6 -3 -19 -6 -29 -5 -17 -5 -17 9 -1 8 10 18 14 22 10
4 -4 6 -1 3 7 -5 17 -28 27 -28 13z"/>
<path d="M4919 4943 c11 -21 8 -27 -11 -24 -5 0 -8 -3 -8 -9 0 -11 17 -12 43
-1 16 6 15 9 -9 31 -26 24 -26 24 -15 3z"/>
<path d="M2967 4888 c7 -82 13 -87 13 -10 0 33 -4 63 -9 66 -5 4 -7 -20 -4
-56z"/>
<path d="M4685 4912 c-2 -7 2 -15 10 -18 19 -8 19 -24 0 -24 -8 0 -15 -4 -15
-10 0 -5 9 -10 20 -10 11 0 20 -4 20 -10 0 -5 -4 -10 -10 -10 -5 0 -10 -6 -10
-13 0 -8 7 -14 15 -14 8 0 12 4 10 8 -3 3 2 13 11 20 13 10 17 10 25 -2 6 -10
9 -10 9 -1 0 7 -11 17 -25 22 -17 6 -23 15 -20 30 3 13 -1 20 -12 20 -15 0
-15 1 1 13 16 12 16 13 -3 13 -11 0 -23 -6 -26 -14z"/>
<path d="M3670 4880 c-25 -10 -68 -19 -97 -19 -150 -2 -267 -139 -218 -257 18
-45 30 -54 69 -54 20 0 39 11 65 39 40 43 77 56 115 41 31 -11 32 -24 6 -57
-13 -17 -20 -41 -20 -70 l0 -45 49 7 c84 11 91 6 91 -81 0 -55 3 -74 13 -74 8
0 22 -9 31 -19 20 -22 106 -37 131 -23 14 7 8 10 -25 15 -50 6 -69 29 -70 80
0 20 -3 36 -7 36 -23 -4 -33 3 -33 22 0 19 5 21 60 17 l61 -3 -7 40 c-11 72
-30 105 -58 105 -15 0 -26 4 -26 9 0 15 -57 33 -82 25 -21 -6 -22 -5 -8 11 14
16 13 17 -8 11 -38 -13 -62 2 -62 37 0 72 6 77 77 77 l65 0 -23 -20 -24 -19
62 -1 c34 0 65 -5 69 -11 18 -29 34 74 18 116 -6 14 -9 13 -30 -6 -19 -18 -26
-20 -39 -9 -8 7 -15 25 -15 41 0 31 -31 59 -65 58 -11 0 -40 -9 -65 -19z"/>
<path d="M4786 4841 c22 -21 27 -21 18 3 -3 9 -13 16 -22 16 -13 0 -12 -3 4
-19z"/>
<path d="M7235 4758 c-115 -22 -211 -41 -213 -43 -2 -2 3 -39 12 -82 8 -43 20
-111 27 -151 l12 -74 36 7 c20 4 39 9 42 11 4 2 -1 46 -10 98 l-17 95 25 5
c103 20 98 22 105 -23 3 -23 11 -64 17 -90 l10 -50 37 6 c20 3 39 7 41 9 2 2
-4 43 -12 91 -9 48 -15 88 -14 90 2 1 21 5 43 9 l40 6 16 -92 c9 -51 19 -94
22 -97 11 -12 76 8 76 24 0 8 -12 78 -26 154 -21 112 -30 139 -43 138 -9 -1
-110 -19 -226 -41z"/>
<path d="M3001 4783 c-1 -7 -8 -10 -16 -7 -22 9 -19 -13 9 -60 13 -23 27 -51
31 -64 5 -19 3 -23 -12 -20 -14 2 -17 -2 -14 -22 1 -14 9 -37 17 -52 8 -15 14
-33 14 -40 0 -7 16 -37 35 -66 34 -49 44 -57 178 -121 78 -37 153 -71 167 -74
14 -4 37 -18 52 -32 15 -14 32 -25 38 -25 10 0 14 -13 11 -40 -2 -9 4 -6 14 8
20 27 35 29 35 3 0 -15 12 -22 50 -31 27 -6 54 -9 60 -5 5 3 24 -1 42 -9 17
-9 39 -16 50 -16 10 0 18 -7 18 -17 0 -10 9 -31 20 -48 11 -16 20 -37 20 -46
0 -8 7 -24 15 -35 15 -18 15 -16 9 25 -4 32 -3 42 6 39 6 -2 28 11 47 29 19
18 39 33 44 33 5 0 8 39 7 88 -1 72 -2 79 -7 37 -6 -46 -8 -50 -31 -47 -13 1
-44 18 -68 37 -69 53 -161 63 -97 10 17 -13 26 -24 22 -25 -11 0 -61 34 -106
73 -19 16 -62 42 -95 57 -34 15 -70 37 -81 50 -29 33 -103 62 -137 55 -36 -8
-119 30 -198 93 -53 41 -60 51 -60 83 0 22 -11 53 -30 83 -17 26 -37 62 -45
79 -7 18 -14 27 -14 20z m96 -345 c-3 -8 -6 -5 -6 6 -1 11 2 17 5 13 3 -3 4
-12 1 -19z"/>
<path d="M4825 4749 c1 -10 5 -22 10 -26 4 -5 5 -3 1 4 -3 6 -2 14 4 18 14 9
12 22 -3 22 -7 0 -13 -8 -12 -18z"/>
<path d="M2931 4714 c0 -11 3 -14 6 -6 3 7 2 16 -1 19 -3 4 -6 -2 -5 -13z"/>
<path d="M3836 4625 c4 -10 19 -15 43 -14 l36 1 -35 13 c-46 18 -50 18 -44 0z"/>
<path d="M4615 4604 c-21 -16 -5 -18 29 -5 16 6 17 9 5 13 -8 3 -23 0 -34 -8z"/>
<path d="M4705 4450 c3 -5 8 -10 11 -10 2 0 4 5 4 10 0 6 -5 10 -11 10 -5 0
-7 -4 -4 -10z"/>
<path d="M6072 4379 c-24 -11 -42 -23 -39 -25 9 -9 56 8 73 27 21 23 20 23
-34 -2z"/>
<path d="M5980 4365 c0 -9 6 -12 15 -9 8 4 15 7 15 9 0 2 -7 5 -15 9 -9 3 -15
0 -15 -9z"/>
<path d="M4470 4342 c0 -7 -4 -11 -8 -8 -5 3 -9 -1 -9 -9 0 -9 8 -7 29 8 33
25 34 26 8 24 -11 -1 -20 -7 -20 -15z"/>
<path d="M7290 4348 c-107 -5 -198 -12 -202 -16 -3 -4 -4 -31 -1 -59 l6 -53
83 7 84 6 0 -26 c0 -19 -18 -40 -80 -92 l-80 -67 0 -64 c0 -35 3 -64 8 -64 4
0 47 34 95 76 l88 77 32 -33 c55 -56 120 -66 178 -27 53 36 63 75 54 222 l-7
125 -32 -2 c-17 0 -119 -5 -226 -10z m188 -155 c8 -103 -116 -115 -132 -13 -3
23 -4 46 0 51 3 5 33 9 67 7 l62 -3 3 -42z"/>
<path d="M4530 4346 c0 -2 11 -6 25 -8 14 -3 25 -1 25 3 0 5 -11 9 -25 9 -14
0 -25 -2 -25 -4z"/>
<path d="M6074 4328 l-19 -23 23 19 c12 11 22 21 22 23 0 8 -8 2 -26 -19z"/>
<path d="M5915 4321 c-37 -25 -102 -80 -93 -81 3 0 24 15 45 33 21 17 50 40
64 49 33 23 21 22 -16 -1z"/>
<path d="M3926 4322 c-3 -5 1 -15 9 -22 16 -14 20 -3 6 19 -5 8 -11 9 -15 3z"/>
<path d="M6439 4318 c0 -2 -2 -35 -3 -74 -2 -49 -8 -81 -22 -105 -17 -30 -27
-35 -75 -43 -105 -16 -159 -11 -231 23 -40 19 -70 40 -73 52 -4 10 -11 17 -16
14 -12 -8 -11 41 2 68 10 21 10 21 -5 3 -9 -11 -16 -28 -16 -39 0 -12 -4 -16
-12 -11 -7 4 -5 -2 5 -13 9 -11 17 -23 17 -28 0 -14 -32 19 -41 44 -7 17 -13
21 -21 13 -12 -12 28 -62 53 -66 8 -1 26 -10 41 -20 86 -57 427 -154 402 -115
-4 8 0 9 15 4 12 -4 21 -2 21 4 0 6 -4 11 -10 11 -5 0 -10 7 -10 15 0 8 4 15
9 15 27 0 31 162 5 211 -12 25 -32 46 -35 37z"/>
<path d="M5945 4289 c-4 -6 -5 -12 -2 -15 2 -3 7 2 10 11 7 17 1 20 -8 4z"/>
<path d="M6052 4275 c0 -16 2 -22 5 -12 2 9 2 23 0 30 -3 6 -5 -1 -5 -18z"/>
<path d="M1650 4279 c0 -5 5 -7 10 -4 6 3 10 8 10 11 0 2 -4 4 -10 4 -5 0 -10
-5 -10 -11z"/>
<path d="M5820 4210 c0 -5 5 -10 11 -10 5 0 7 5 4 10 -3 6 -8 10 -11 10 -2 0
-4 -4 -4 -10z"/>
<path d="M5854 4191 c17 -27 210 -131 222 -119 2 3 -29 19 -69 38 -39 18 -92
46 -116 63 -24 17 -41 25 -37 18z"/>
<path d="M5330 4160 c0 -5 5 -10 10 -10 6 0 10 5 10 10 0 6 -4 10 -10 10 -5 0
-10 -4 -10 -10z"/>
<path d="M4375 4141 c-3 -5 -2 -12 3 -15 5 -3 9 1 9 9 0 17 -3 19 -12 6z"/>
<path d="M5354 4132 c-9 -6 -36 -113 -30 -119 1 -1 48 10 104 24 57 14 100 29
95 34 -7 6 -33 17 -148 65 -5 2 -15 0 -21 -4z"/>
<path d="M1798 4123 c7 -3 16 -2 19 1 4 3 -2 6 -13 5 -11 0 -14 -3 -6 -6z"/>
<path d="M1886 4116 c28 -7 72 -24 98 -39 25 -14 44 -21 40 -15 -12 18 -128
68 -159 67 -24 -1 -19 -3 21 -13z"/>
<path d="M4354 4090 c0 -13 4 -16 10 -10 7 7 7 13 0 20 -6 6 -10 3 -10 -10z"/>
<path d="M1634 4084 c-18 -14 -18 -14 6 -3 31 14 36 19 24 19 -6 0 -19 -7 -30
-16z"/>
<path d="M4213 4085 c-7 -8 -13 -19 -13 -26 0 -6 -7 -9 -15 -5 -9 3 -15 0 -15
-8 0 -18 19 -24 50 -15 14 4 21 7 17 8 -4 1 -3 10 3 21 8 14 8 20 0 20 -6 0
-8 5 -5 10 9 15 -8 11 -22 -5z"/>
<path d="M5660 4093 c-31 -12 -60 -54 -60 -87 0 -18 -7 -73 -16 -122 -10 -49
-17 -99 -17 -111 1 -13 -3 -23 -8 -23 -5 0 -9 -6 -9 -13 0 -28 -74 -237 -92
-263 -6 -8 4 -13 32 -16 40 -4 41 -3 61 42 11 25 36 89 54 143 32 92 33 97 15
97 -17 0 -20 6 -19 38 1 20 3 29 6 20 2 -10 12 -18 22 -18 13 0 21 13 29 53
27 121 40 268 25 266 -5 0 -15 -3 -23 -6z"/>
<path d="M1565 4028 l-40 -43 43 40 c39 36 47 45 39 45 -2 0 -21 -19 -42 -42z"/>
<path d="M3944 3930 c0 -80 2 -112 3 -72 2 39 2 105 0 145 -1 39 -3 7 -3 -73z"/>
<path d="M6160 4036 c30 -12 71 -30 91 -39 20 -9 56 -21 80 -27 27 -7 62 -26
85 -48 37 -34 39 -35 42 -14 5 31 20 27 24 -5 2 -14 9 -28 16 -29 7 -1 8 0 2
3 -16 8 -12 34 8 49 20 15 29 11 -119 48 -58 15 -141 40 -185 56 -92 35 -125
39 -44 6z"/>
<path d="M4150 4045 c0 -5 5 -17 10 -25 5 -8 10 -10 10 -5 0 6 -5 17 -10 25
-5 8 -10 11 -10 5z"/>
<path d="M1989 4003 c-13 -16 -12 -17 4 -4 9 7 17 15 17 17 0 8 -8 3 -21 -13z"/>
<path d="M4078 4013 c7 -3 16 -2 19 1 4 3 -2 6 -13 5 -11 0 -14 -3 -6 -6z"/>
<path d="M2092 3935 c12 -13 -58 -58 -157 -102 -92 -41 -202 -76 -310 -98 -33
-7 -49 -13 -35 -14 31 -1 176 33 255 61 78 27 228 104 249 127 14 15 15 21 4
27 -7 4 -10 4 -6 -1z"/>
<path d="M6207 3929 c-11 -6 -30 -9 -43 -6 -20 3 -22 2 -13 -9 9 -11 8 -14 -1
-14 -7 0 -2 -9 11 -21 20 -18 32 -20 74 -14 56 7 75 19 75 46 0 15 -5 17 -29
13 -16 -4 -32 -1 -35 5 -9 13 -16 13 -39 0z"/>
<path d="M2146 3897 c3 -10 9 -15 12 -12 3 3 0 11 -7 18 -10 9 -11 8 -5 -6z"/>
<path d="M2346 3865 c-86 -77 -288 -166 -509 -225 -194 -51 -273 -64 -418 -64
-76 -1 -132 -4 -125 -8 6 -4 54 -8 106 -8 61 0 100 -4 108 -12 9 -9 12 -9 12
0 0 7 15 12 38 12 21 0 65 5 98 11 87 16 348 93 434 128 78 32 95 37 70 21
-67 -43 -421 -151 -542 -165 -72 -9 -90 -16 -58 -24 71 -19 489 91 588 155 27
18 28 11 6 -71 -16 -62 -61 -151 -72 -141 -3 3 -13 -1 -22 -9 -18 -16 -54 -10
-44 7 3 5 13 7 21 4 8 -3 11 -1 8 4 -5 9 16 15 38 11 5 -1 6 3 3 8 -4 5 0 13
7 18 8 4 20 19 27 33 l13 25 -29 -26 c-75 -69 -202 -121 -334 -137 -70 -9 -72
-10 -24 -11 28 0 76 4 105 10 30 7 64 12 76 13 12 0 20 3 17 5 -10 11 48 29
69 22 21 -8 20 -9 -14 -24 -50 -21 -131 -37 -192 -38 -48 -1 -50 -1 -22 -10
41 -14 145 -4 192 18 57 26 60 26 34 4 -13 -12 -18 -21 -12 -21 6 0 32 19 56
41 51 47 111 157 121 224 6 44 24 73 24 40 0 -23 88 -253 108 -284 10 -14 23
-38 29 -52 11 -26 75 -125 134 -209 193 -274 456 -506 719 -635 207 -102 374
-155 564 -180 160 -22 169 -21 183 16 11 28 9 33 -19 62 -50 53 -109 164 -160
305 -58 159 -114 352 -129 442 -13 82 -27 104 -90 135 -30 16 -57 38 -67 57
-9 17 -39 56 -65 87 -27 31 -59 76 -72 101 -33 65 -126 203 -132 197 -3 -3 2
-34 10 -69 9 -35 19 -79 22 -98 7 -33 44 -109 83 -172 9 -15 14 -29 11 -33 -6
-6 -212 28 -243 41 -17 6 -18 3 -11 -37 4 -24 18 -73 32 -109 48 -130 34 -117
131 -129 48 -7 100 -14 115 -16 25 -4 28 -2 23 18 -6 22 -6 22 5 1 12 -23 30
-27 177 -40 39 -4 72 -11 72 -16 0 -6 -16 -7 -37 -4 -21 4 -63 9 -93 11 -30 3
-110 12 -178 21 -176 22 -169 28 -111 -90 85 -172 154 -269 304 -426 88 -93
88 -93 15 -25 -146 137 -237 260 -331 446 -50 101 -62 118 -86 122 -15 3 -59
12 -98 19 -38 7 -77 12 -85 11 -8 -1 -18 4 -23 10 -5 7 -5 1 -1 -13 l7 -25
-25 26 c-15 17 -44 31 -79 38 -30 7 -67 19 -84 26 -16 7 -42 16 -57 20 -15 4
-29 14 -33 22 -4 12 -2 13 7 6 34 -27 297 -98 442 -119 39 -5 48 -4 43 7 -3 8
-23 67 -44 131 l-38 118 -95 31 c-142 46 -212 75 -348 141 -67 34 -125 59
-127 56 -2 -2 4 -41 15 -87 11 -45 20 -91 20 -102 0 -10 27 -45 60 -77 70 -69
78 -88 18 -41 -38 30 -37 14 1 -18 9 -8 11 -13 3 -13 -7 0 -12 -5 -12 -11 0
-5 3 -8 8 -6 4 3 8 -7 8 -21 1 -18 24 -51 72 -102 55 -57 75 -87 89 -132 11
-31 15 -54 10 -51 -21 13 22 -50 78 -113 170 -195 359 -327 593 -414 42 -16
69 -29 59 -30 -28 0 -242 86 -334 135 -323 171 -618 471 -806 818 -57 105
-147 330 -147 367 0 8 26 29 58 47 68 37 132 94 132 117 0 9 -1 16 -2 16 -2
-1 -25 -21 -52 -45z m389 -395 c3 -5 1 -10 -4 -10 -6 0 -11 5 -11 10 0 6 2 10
4 10 3 0 8 -4 11 -10z m-670 -30 c-10 -11 -23 -20 -28 -20 -6 0 0 11 13 25 27
29 42 25 15 -5z m585 10 c0 -5 -5 -10 -11 -10 -5 0 -7 5 -4 10 3 6 8 10 11 10
2 0 4 -4 4 -10z m140 -304 c0 -12 -5 -7 -19 24 -11 24 -11 24 3 6 9 -11 16
-24 16 -30z m105 -116 c10 -11 16 -20 13 -20 -3 0 -13 9 -23 20 -10 11 -16 20
-13 20 3 0 13 -9 23 -20z m56 -57 c13 -16 12 -17 -3 -4 -17 13 -22 21 -14 21
2 0 10 -8 17 -17z m59 -58 c19 -19 32 -35 29 -35 -3 0 -20 16 -39 35 -19 19
-32 35 -29 35 3 0 20 -16 39 -35z m90 -171 c0 -2 -9 0 -20 6 -11 6 -20 13 -20
16 0 2 9 0 20 -6 11 -6 20 -13 20 -16z m410 -18 c0 -20 71 -125 126 -185 27
-30 83 -76 124 -103 41 -26 70 -48 64 -48 -18 0 -104 59 -156 108 -60 56 -127
141 -157 199 -23 47 -26 57 -11 48 6 -3 10 -12 10 -19z m-349 -33 c13 -17 13
-17 -6 -3 -11 8 -22 16 -24 17 -2 2 0 3 6 3 6 0 17 -8 24 -17z m457 10 c-10
-2 -28 -2 -40 0 -13 2 -5 4 17 4 22 1 32 -1 23 -4z m-397 -50 c13 -16 12 -17
-3 -4 -17 13 -22 21 -14 21 2 0 10 -8 17 -17z m194 -53 c33 -36 146 -116 228
-160 42 -23 77 -44 77 -47 0 -10 -162 83 -222 128 -72 54 -179 151 -133 121
17 -11 39 -30 50 -42z m-116 1 c20 -15 69 -50 109 -76 39 -26 72 -50 72 -52 0
-5 -12 2 -85 51 -78 52 -150 106 -140 106 4 0 24 -13 44 -29z m251 -167 c0 -2
-13 2 -30 11 -16 9 -30 18 -30 21 0 2 14 -2 30 -11 17 -9 30 -18 30 -21z m25
-34 c25 -11 -1 -11 -35 0 -20 6 -21 8 -5 8 11 0 29 -3 40 -8z m58 -17 c-7 -2
-19 -2 -25 0 -7 3 -2 5 12 5 14 0 19 -2 13 -5z m242 -3 c13 -6 15 -9 5 -9 -8
0 -22 4 -30 9 -18 12 -2 12 25 0z m-170 -10 c25 -11 -1 -11 -35 0 -20 6 -21 8
-5 8 11 0 29 -3 40 -8z"/>
<path d="M4121 3894 c0 -11 3 -14 6 -6 3 7 2 16 -1 19 -3 4 -6 -2 -5 -13z"/>
<path d="M7100 3844 c-30 -82 -32 -185 -4 -239 31 -61 78 -88 139 -82 41 4 54
10 80 40 17 20 39 62 49 94 20 65 40 93 67 93 58 0 52 -133 -9 -203 -20 -22
-17 -24 43 -29 l49 -3 20 50 c29 75 28 178 -3 232 -40 70 -123 93 -187 54 -31
-19 -55 -60 -88 -154 -13 -35 -24 -49 -43 -53 -71 -18 -71 138 -1 213 12 13
19 25 16 28 -3 3 -28 8 -55 12 l-51 6 -22 -59z"/>
<path d="M3978 3883 c7 -3 16 -2 19 1 4 3 -2 6 -13 5 -11 0 -14 -3 -6 -6z"/>
<path d="M4090 3875 c0 -8 4 -15 10 -15 5 0 7 7 4 15 -4 8 -8 15 -10 15 -2 0
-4 -7 -4 -15z"/>
<path d="M6430 3870 c0 -5 5 -10 10 -10 6 0 10 5 10 10 0 6 -4 10 -10 10 -5 0
-10 -4 -10 -10z"/>
<path d="M4048 3863 c6 -2 18 -2 25 0 6 3 1 5 -13 5 -14 0 -19 -2 -12 -5z"/>
<path d="M4168 3863 c6 -2 18 -2 25 0 6 3 1 5 -13 5 -14 0 -19 -2 -12 -5z"/>
<path d="M1820 3850 c-13 -8 -13 -10 2 -10 9 0 20 5 23 10 8 13 -5 13 -25 0z"/>
<path d="M2032 3810 c-95 -49 -254 -101 -385 -126 l-72 -14 60 5 c123 9 412
109 490 169 35 27 2 15 -93 -34z"/>
<path d="M2161 3844 c0 -11 3 -14 6 -6 3 7 2 16 -1 19 -3 4 -6 -2 -5 -13z"/>
<path d="M4065 3820 c-19 -8 -19 -9 2 -9 12 -1 25 4 28 9 7 12 -2 12 -30 0z"/>
<path d="M4030 3808 c0 -9 8 -26 18 -39 21 -25 46 -21 54 9 4 16 1 20 -13 19
-11 -1 -19 -5 -19 -11 0 -5 -9 1 -20 14 -15 17 -20 19 -20 8z"/>
<path d="M3943 3730 c0 -30 2 -43 4 -27 2 15 2 39 0 55 -2 15 -4 2 -4 -28z"/>
<path d="M3960 3763 c0 -14 15 -29 33 -36 20 -7 21 -3 7 24 -10 18 -40 27 -40
12z"/>
<path d="M4111 3747 c-6 -8 -8 -17 -4 -20 11 -12 19 -7 20 13 2 24 -1 25 -16
7z"/>
<path d="M4030 3736 c0 -9 7 -16 16 -16 9 0 14 5 12 12 -6 18 -28 21 -28 4z"/>
<path d="M1460 3706 c0 -8 4 -17 9 -20 5 -4 7 3 4 14 -6 23 -13 26 -13 6z"/>
<path d="M3970 3695 c-7 -9 -8 -15 -2 -15 5 0 12 7 16 15 3 8 4 15 2 15 -2 0
-9 -7 -16 -15z"/>
<path d="M2065 3630 c-83 -41 -344 -116 -428 -124 -60 -5 -74 -16 -21 -16 67
1 365 81 446 120 23 11 46 17 52 13 6 -3 8 -3 4 2 -4 4 3 16 15 26 30 25 24
23 -68 -21z"/>
<path d="M2400 3623 c0 -15 2 -16 10 -3 10 16 11 14 16 -38 2 -31 66 -152 71
-135 1 4 -8 49 -20 98 -22 84 -25 90 -50 93 -21 3 -27 -1 -27 -15z"/>
<path d="M2090 3585 c-106 -77 -281 -130 -407 -122 -46 2 -70 0 -66 -6 3 -6
51 -8 122 -5 99 5 128 10 197 37 86 33 204 103 204 121 0 13 3 14 -50 -25z"/>
<path d="M7056 3478 c-8 -23 -46 -221 -44 -224 2 -1 20 -5 41 -9 35 -7 37 -6
37 19 0 15 6 29 13 31 6 3 75 -8 152 -23 l140 -28 -2 -36 c-2 -33 1 -36 29
-42 18 -3 35 -3 39 1 10 10 55 230 49 236 -3 2 -20 7 -37 10 -30 6 -33 4 -41
-26 -5 -18 -13 -31 -18 -31 -58 10 -280 57 -284 61 -3 2 -5 19 -5 36 0 29 -3
32 -33 35 -20 2 -34 -2 -36 -10z"/>
<path d="M1590 3446 c0 -9 70 -59 75 -54 3 3 -13 17 -35 32 -22 14 -40 24 -40
22z"/>
<path d="M5443 3438 c-5 -7 -22 -38 -38 -68 -15 -30 -39 -71 -52 -90 -31 -47
-29 -51 15 -36 20 8 36 19 34 25 -1 7 5 11 14 9 12 -2 28 15 50 52 39 65 40
70 14 70 -16 0 -20 -7 -20 -32 0 -38 -12 -30 -15 11 -2 28 0 30 34 33 25 2 37
8 39 21 3 13 -4 17 -31 17 -19 0 -39 -6 -44 -12z"/>
<path d="M1705 3376 c34 -17 134 -40 141 -33 4 4 -80 28 -146 42 -22 5 -21 3
5 -9z"/>
<path d="M1958 3374 c-3 -3 -28 -9 -55 -14 -42 -7 -43 -8 -13 -8 31 -1 111 25
84 27 -6 1 -13 -2 -16 -5z"/>
<path d="M5629 3357 c0 -1 -2 -14 -4 -29 -2 -16 -13 -41 -25 -58 -12 -16 -18
-35 -14 -41 4 -7 3 -9 -3 -6 -6 4 -29 -31 -52 -79 -24 -47 -45 -84 -47 -81 -3
2 0 16 5 31 17 44 3 29 -19 -21 -11 -26 -18 -51 -16 -57 2 -6 5 -3 5 7 1 10 5
15 11 12 6 -4 7 1 3 11 -4 11 -3 15 5 10 6 -4 18 4 28 19 11 16 20 22 28 16 6
-4 19 -7 29 -6 9 2 15 -1 11 -6 -3 -5 0 -9 5 -9 6 0 11 1 11 3 0 1 7 20 14 42
11 32 16 36 21 22 5 -12 -4 -35 -29 -72 l-36 -54 29 5 c27 6 29 4 24 -15 -3
-12 -9 -24 -14 -26 -4 -3 -5 -13 -1 -23 4 -13 9 -7 17 23 10 33 20 45 61 67
27 15 50 25 53 23 7 -7 -21 -35 -29 -30 -4 3 -14 -3 -21 -13 -13 -15 -12 -16
4 -3 13 10 17 10 17 1 0 -10 3 -10 15 0 13 10 15 9 15 -9 0 -11 5 -21 10 -21
12 0 13 27 2 34 -5 3 -7 19 -4 36 5 36 -1 37 -53 5 -22 -14 -43 -25 -47 -25
-10 0 -7 52 5 67 5 7 5 18 1 24 -4 7 -3 9 3 6 5 -3 17 7 27 24 10 16 22 26 28
23 7 -4 8 -2 4 4 -4 6 5 33 19 59 24 46 24 48 6 55 -10 3 -22 11 -26 17 -3 6
-11 11 -16 11 -5 0 -1 -10 11 -22 11 -12 17 -24 14 -27 -3 -3 -23 13 -45 36
-21 23 -39 41 -40 40z m61 -83 c0 -2 -8 -1 -17 2 -13 4 -12 1 4 -11 l22 -17
-24 -39 c-14 -21 -25 -43 -25 -49 0 -5 -5 -10 -11 -10 -5 0 -7 5 -4 10 5 8
-32 30 -49 30 -1 0 -2 -10 -3 -22 0 -13 1 -17 4 -10 3 6 9 12 14 12 5 0 4 -9
-3 -20 -8 -12 -15 -15 -19 -8 -10 15 -29 0 -29 -23 0 -10 -4 -19 -10 -19 -14
0 -13 4 18 60 26 47 42 63 42 39 0 -5 5 -7 10 -4 6 4 17 1 25 -5 9 -7 15 -8
15 -2 0 5 -7 15 -15 22 -11 9 -13 16 -5 24 5 5 10 15 10 21 0 5 -9 -1 -20 -15
-12 -15 -20 -20 -20 -11 0 8 7 22 16 32 15 17 17 16 40 -9 13 -15 24 -22 24
-16 0 6 -7 17 -15 24 -8 7 -13 16 -10 20 3 5 1 11 -5 15 -6 4 -8 11 -4 16 5 8
44 -25 44 -37z m-110 -159 c10 -12 10 -15 -4 -15 -9 0 -16 7 -16 15 0 8 2 15
4 15 2 0 9 -7 16 -15z"/>
<path d="M5640 3232 c0 -12 19 -26 26 -19 2 2 -2 10 -11 17 -9 8 -15 8 -15 2z"/>
<path d="M5582 3288 c-43 -74 -82 -146 -82 -154 0 -11 22 25 73 119 38 69 44
93 9 35z"/>
<path d="M7556 3312 c-10 -16 -24 -92 -17 -96 3 -2 22 -6 43 -10 l36 -7 7 51
c4 28 5 53 4 54 -11 10 -68 16 -73 8z"/>
<path d="M5896 3127 c-17 -13 -17 -14 0 -28 16 -12 17 -12 11 4 -4 11 -2 17 8
17 8 0 15 5 15 10 0 14 -13 13 -34 -3z"/>
<path d="M5825 3111 c-2 -5 4 -11 15 -14 11 -3 20 -2 20 3 0 12 -28 21 -35 11z"/>
<path d="M5937 3105 c-3 -7 2 -19 11 -27 15 -12 16 -11 3 5 -15 19 -2 24 17 5
6 -6 14 -10 16 -7 2 2 -6 12 -19 21 -19 14 -24 15 -28 3z"/>
<path d="M7346 3045 c-10 -36 -21 -65 -24 -65 -3 0 -82 25 -175 56 -93 30
-174 53 -181 51 -10 -4 -41 -96 -34 -102 2 -2 75 -26 164 -55 88 -28 166 -55
174 -60 12 -7 11 -17 -3 -63 -9 -29 -17 -58 -17 -64 0 -8 71 -37 76 -30 7 9
114 346 114 358 0 9 -11 20 -24 23 -13 3 -30 8 -38 11 -9 4 -19 -14 -32 -60z"/>
<path d="M4407 3093 c-4 -3 -7 -11 -7 -17 0 -6 5 -5 12 2 6 6 9 14 7 17 -3 3
-9 2 -12 -2z"/>
<path d="M5526 3061 c4 -15 2 -21 -4 -17 -6 3 -14 1 -18 -5 -4 -7 -3 -9 4 -5
5 3 12 0 15 -6 3 -9 11 -7 25 8 13 14 17 26 11 35 -7 11 -9 10 -9 -5 0 -20 0
-20 -16 0 -15 18 -15 18 -8 -5z"/>
<path d="M5810 3072 c0 -6 8 -13 18 -17 15 -7 14 -9 -7 -14 -13 -4 -28 -17
-32 -29 -6 -15 -5 -21 1 -17 6 3 10 13 10 21 0 12 32 20 63 15 18 -3 4 16 -23
32 -16 10 -30 14 -30 9z"/>
<path d="M5905 3070 c-4 -6 -16 -8 -28 -5 -19 5 -19 4 3 -9 18 -11 26 -11 29
-3 2 7 9 15 15 19 8 6 7 8 -1 8 -6 0 -15 -5 -18 -10z"/>
<path d="M5982 3058 c-7 -7 -47 -24 -90 -39 -204 -72 -246 -89 -252 -99 -5 -9
-13 -9 -26 -2 -11 6 -33 8 -49 5 -17 -3 -26 -2 -22 3 5 5 13 10 18 10 5 1 14
2 20 3 5 0 7 6 4 11 -4 6 -11 7 -17 4 -6 -4 -21 -8 -32 -10 -34 -4 -76 -23
-76 -34 0 -5 4 -10 9 -10 5 0 7 -9 4 -20 -3 -11 0 -20 6 -20 16 0 13 -36 -4
-50 -8 -7 -15 -9 -15 -6 0 14 -61 -29 -77 -54 l-16 -25 25 23 c30 27 58 28 65
2 3 -13 14 -20 29 -20 28 0 42 19 23 32 -11 8 -10 9 4 4 11 -3 20 0 23 9 4 8
17 13 34 12 15 -1 26 -6 23 -10 -3 -5 9 -6 26 -4 17 3 31 1 31 -4 0 -6 5 -7
10 -4 6 3 10 11 10 16 0 6 -5 7 -12 3 -8 -5 -9 -2 -4 11 5 14 4 16 -7 6 -15
-12 -77 -4 -77 10 0 4 7 14 15 23 8 8 15 22 15 30 0 9 6 16 13 16 8 0 7 4 -3
10 -16 11 -9 13 32 10 14 -1 40 6 57 14 16 9 37 16 46 16 8 0 23 8 34 19 10
10 57 33 104 51 47 18 94 41 103 51 19 21 15 26 -4 7z m-446 -143 c3 -8 -1
-24 -10 -37 -9 -12 -16 -29 -16 -38 1 -21 39 30 40 53 0 9 7 17 15 17 12 0 13
-4 5 -19 -15 -29 -12 -39 6 -16 15 19 16 19 12 1 -1 -11 -22 -29 -45 -42 -23
-12 -42 -19 -41 -15 1 3 -2 20 -6 38 -11 48 24 100 40 58z m-11 -125 c-3 -5
-13 -10 -21 -10 -8 0 -12 5 -9 10 3 6 13 10 21 10 8 0 12 -4 9 -10z"/>
<path d="M5491 3010 c-1 -11 -11 -15 -36 -14 -21 1 -32 -2 -29 -8 4 -6 -1 -8
-13 -4 -19 6 -47 -17 -68 -54 -8 -13 -7 -13 8 -1 25 20 21 1 -9 -42 -14 -21
-24 -40 -22 -42 13 -12 82 -55 88 -55 4 0 7 15 7 33 -1 18 2 40 6 50 6 15 3
17 -16 12 -33 -11 -52 -31 -36 -40 7 -5 10 -4 5 3 -3 6 -2 13 4 17 5 3 10 -1
10 -9 0 -21 -18 -30 -35 -16 -13 11 -12 16 5 37 11 14 20 31 20 38 0 13 65 75
78 75 4 0 18 -9 31 -19 20 -15 30 -17 53 -9 23 8 26 13 17 29 -7 13 -17 18
-34 15 -13 -3 -26 1 -29 7 -3 7 -5 6 -5 -3z m55 -28 c-5 -9 -25 -9 -46 -2 -3
1 6 5 20 9 28 9 35 7 26 -7z m-151 -22 c-10 -11 -21 -17 -24 -14 -3 3 3 12 13
20 28 20 32 17 11 -6z"/>
<path d="M5631 2990 c-1 -8 -4 -26 -7 -40 -5 -22 -4 -23 6 -7 6 10 9 28 7 40
-2 12 -5 15 -6 7z"/>
<path d="M5706 2983 c-6 -14 -5 -15 5 -6 7 7 10 15 7 18 -3 3 -9 -2 -12 -12z"/>
<path d="M5424 2952 c-26 -21 -37 -49 -22 -58 6 -4 8 -3 5 3 -4 6 0 14 9 17 9
3 12 11 8 18 -6 10 -4 11 7 1 7 -7 18 -13 24 -13 5 0 3 5 -5 10 -12 8 -9 10
12 10 15 0 30 5 34 12 5 8 0 9 -14 6 -12 -4 -22 -2 -22 3 0 14 -13 11 -36 -9z"/>
<path d="M5425 2900 c3 -5 10 -10 16 -10 5 0 9 5 9 10 0 6 -7 10 -16 10 -8 0
-12 -4 -9 -10z"/>
<path d="M5430 2853 c0 -27 15 -23 22 5 3 11 0 19 -8 19 -8 0 -14 -11 -14 -24z"/>
<path d="M1840 2835 c-7 -9 -11 -17 -9 -20 3 -2 10 5 17 15 14 24 10 26 -8 5z"/>
<path d="M5457 2835 c-4 -8 -3 -16 1 -19 4 -3 9 4 9 15 2 23 -3 25 -10 4z"/>
<path d="M1895 2830 c3 -5 8 -10 11 -10 2 0 4 5 4 10 0 6 -5 10 -11 10 -5 0
-7 -4 -4 -10z"/>
<path d="M1861 2811 c-8 -14 -7 -20 4 -25 11 -4 15 2 15 19 0 30 -6 32 -19 6z"/>
<path d="M5290 2810 c8 -5 20 -10 25 -10 6 0 3 5 -5 10 -8 5 -19 10 -25 10 -5
0 -3 -5 5 -10z"/>
<path d="M6824 2733 c-20 -43 -49 -106 -65 -140 l-28 -63 29 -15 c16 -8 34
-15 39 -15 6 0 28 38 50 85 22 47 42 85 45 85 5 0 94 -40 105 -47 2 -1 -13
-39 -33 -84 -21 -44 -36 -82 -34 -84 9 -8 70 -36 72 -33 1 2 19 38 39 81 20
42 40 77 44 77 4 -1 23 -9 41 -18 l32 -18 -40 -83 c-22 -45 -40 -86 -40 -90 0
-9 45 -31 64 -31 13 0 143 266 134 275 -2 3 -65 33 -139 68 -208 99 -268 127
-274 127 -3 0 -22 -35 -41 -77z"/>
<path d="M5362 2776 c7 -8 15 -12 17 -11 5 6 -10 25 -20 25 -5 0 -4 -6 3 -14z"/>
<path d="M5680 2750 c-9 -6 -10 -10 -3 -10 6 0 15 5 18 10 8 12 4 12 -15 0z"/>
<path d="M5556 2732 c-2 -4 12 -6 32 -4 56 5 62 10 15 11 -23 1 -44 -3 -47 -7z"/>
<path d="M5507 2689 c-10 -6 -27 -9 -37 -6 -14 3 -16 0 -12 -17 3 -11 7 -15
10 -8 2 6 9 12 16 12 7 0 21 7 32 15 22 17 17 19 -9 4z"/>
<path d="M2576 2655 c-11 -8 -26 -15 -33 -15 -8 0 -25 -11 -39 -25 -14 -14
-29 -25 -34 -25 -6 0 -10 -6 -10 -14 0 -7 -7 -19 -15 -26 -8 -7 -15 -18 -15
-24 0 -6 9 0 19 13 10 13 20 20 23 15 3 -5 3 -3 2 4 -2 6 0 12 4 12 4 0 21 14
39 30 38 36 53 38 54 8 1 -17 2 -19 6 -5 2 9 13 17 24 17 20 0 23 8 13 34 -7
19 -13 20 -38 1z"/>
<path d="M2657 2650 c10 -11 19 -20 21 -20 1 0 -2 9 -8 20 -6 11 -15 20 -20
20 -6 0 -2 -9 7 -20z"/>
<path d="M2512 2580 c-18 -29 -15 -38 4 -12 9 13 14 25 12 27 -2 2 -9 -5 -16
-15z"/>
<path d="M2787 2533 c-69 -54 -117 -63 -127 -24 -7 29 -25 38 -33 17 -4 -9 6
-27 23 -45 24 -24 27 -30 14 -35 -9 -3 -19 -4 -24 -1 -13 8 -20 -37 -8 -59 6
-12 28 -41 48 -66 47 -56 63 -87 54 -102 -4 -7 -3 -8 4 -4 12 7 16 -4 13 -34
-4 -40 -13 -60 -26 -60 -18 0 -19 -9 -1 -33 17 -22 22 -15 31 45 4 26 11 45
16 42 5 -3 8 0 7 7 -2 6 3 14 11 17 8 2 11 0 8 -5 -6 -9 7 -13 58 -16 30 -2
30 -2 36 63 5 59 6 62 13 32 5 -18 13 -35 19 -39 7 -4 8 1 3 13 -28 70 -12
139 31 131 20 -4 21 -2 11 11 -11 13 -10 15 3 10 18 -7 20 22 2 44 -6 7 -18
29 -28 48 -23 46 -65 90 -84 90 -9 -1 -42 -21 -74 -47z m111 14 c25 -26 55
-94 47 -107 -3 -4 -14 -6 -24 -3 -24 6 -35 -11 -16 -27 12 -10 18 -8 34 11 11
13 22 22 25 18 3 -3 -21 -34 -53 -70 -61 -67 -95 -83 -106 -48 -4 11 -12 18
-18 16 -19 -6 -19 -33 -1 -51 15 -16 18 -16 36 0 18 17 19 17 12 -2 -6 -16 -4
-16 19 5 15 14 27 21 27 16 0 -4 -8 -14 -17 -22 -15 -12 -15 -14 -2 -10 9 3
16 -1 16 -8 0 -8 -7 -11 -15 -7 -10 3 -13 1 -8 -6 4 -8 -3 -16 -18 -22 -34
-12 -33 -18 2 -14 26 4 26 4 -3 -6 -18 -6 -31 -6 -33 0 -2 5 -9 7 -15 5 -19
-7 -31 6 -55 58 -12 26 -27 47 -32 47 -6 0 -14 8 -17 18 -4 9 -14 22 -22 29
-11 8 -12 12 -3 13 18 0 14 18 -5 22 -13 2 6 21 62 63 44 32 94 69 110 81 38
29 47 29 73 1z"/>
<path d="M2875 2540 c4 -14 14 -32 21 -41 18 -20 18 -29 0 -29 -8 0 -17 -7
-20 -16 -10 -27 0 -27 25 -2 23 23 24 24 7 57 -23 46 -43 65 -33 31z"/>
<path d="M2825 2524 c-19 -14 -19 -15 8 -40 28 -26 38 -46 12 -24 -8 6 -18 9
-23 6 -6 -3 -12 3 -15 14 -3 11 -12 20 -21 20 -20 0 -20 -10 -2 -35 12 -17 12
-21 -6 -36 -16 -15 -17 -20 -6 -38 7 -12 16 -21 20 -21 10 0 20 38 13 49 -3 5
-1 12 5 16 5 3 10 -1 10 -9 0 -9 4 -16 9 -16 5 0 13 -9 16 -20 3 -11 11 -20
16 -20 6 0 8 4 5 8 -2 4 5 9 17 9 22 2 22 1 -2 -18 l-25 -20 -16 21 c-14 19
-18 20 -29 6 -13 -16 -6 -40 10 -31 5 3 6 0 4 -7 -4 -9 2 -14 15 -14 11 0 20
6 20 14 0 7 4 11 9 8 14 -9 42 29 35 47 -3 10 -10 14 -15 11 -5 -3 -12 2 -15
10 -3 9 -10 13 -15 10 -5 -3 -6 -11 -3 -17 5 -9 4 -9 -6 0 -10 9 -7 18 13 45
18 23 23 38 17 48 -7 11 -11 12 -24 0 -9 -7 -19 -10 -22 -7 -3 3 4 10 15 17
12 6 19 15 16 21 -8 12 -16 11 -40 -7z"/>
<path d="M2741 2463 c-11 -13 -11 -17 1 -29 13 -13 16 -13 26 -1 9 10 9 18 -1
30 -11 14 -13 14 -26 0z"/>
<path d="M2688 2426 c-25 -18 -22 -29 4 -20 20 6 21 5 10 -9 -22 -26 -4 -37
22 -14 23 20 23 23 9 39 -19 21 -23 21 -45 4z"/>
<path d="M2731 2377 c-8 -11 -6 -18 9 -32 25 -22 45 -8 35 24 -7 24 -27 27
-44 8z"/>
<path d="M2710 2335 c0 -9 7 -18 15 -21 8 -4 12 -10 9 -15 -3 -5 0 -9 5 -9 16
0 13 26 -5 44 -19 20 -24 20 -24 1z"/>
<path d="M2751 2286 c-10 -12 -11 -20 -3 -28 16 -16 29 -5 22 21 -5 22 -7 22
-19 7z"/>
<path d="M2789 2244 c-27 -29 -12 -32 19 -4 12 12 22 16 22 10 0 -5 4 -10 8
-10 5 0 9 6 9 13 0 22 -34 17 -58 -9z"/>
<path d="M2421 2484 c0 -11 3 -14 6 -6 3 7 2 16 -1 19 -3 4 -6 -2 -5 -13z"/>
<path d="M2603 2479 c-4 -16 -12 -20 -29 -16 -13 2 -24 0 -24 -4 0 -5 12 -9
26 -9 21 0 24 -3 19 -22 -5 -21 -4 -21 15 4 14 18 27 25 38 21 12 -5 10 1 -7
20 -29 32 -31 33 -38 6z m22 -18 c-3 -6 -11 -11 -16 -11 -5 0 -4 6 3 14 14 16
24 13 13 -3z"/>
<path d="M6670 2424 c-57 -53 -110 -151 -110 -202 0 -90 79 -162 161 -145 15
3 58 31 96 62 37 32 76 61 85 64 20 7 48 -17 48 -41 -1 -37 -46 -98 -97 -128
l-51 -30 45 -28 46 -27 30 28 c50 45 65 65 92 117 46 92 26 184 -48 219 -68
33 -111 19 -203 -63 -30 -28 -60 -50 -67 -50 -36 1 -52 40 -33 84 15 36 89
104 123 112 13 4 23 10 23 15 0 9 -70 59 -83 59 -4 0 -30 -21 -57 -46z"/>
<path d="M2422 2424 c0 -22 -9 -59 -21 -82 -12 -23 -17 -42 -11 -42 5 0 10 6
10 13 0 7 12 29 26 50 24 37 25 40 10 70 l-15 32 1 -41z"/>
<path d="M2465 2410 c-9 -15 4 -30 27 -30 18 0 19 2 7 17 -8 10 -9 14 -2 10 6
-4 14 -4 17 1 2 4 -6 9 -19 10 -13 1 -27 -3 -30 -8z"/>
<path d="M2500 2350 c-8 -5 -10 -10 -5 -10 6 0 17 5 25 10 8 5 11 10 5 10 -5
0 -17 -5 -25 -10z"/>
<path d="M2424 2305 l-51 -42 30 -51 c23 -42 26 -52 13 -52 -9 0 -15 3 -14 8
3 15 -22 63 -37 68 -8 3 -12 11 -9 16 4 6 -2 8 -11 6 -10 -1 -20 -9 -23 -17
-3 -8 0 -11 7 -7 7 5 10 2 9 -6 -2 -8 5 -12 17 -11 11 1 14 0 8 -3 -18 -8 -16
-24 3 -24 8 0 12 -5 9 -10 -4 -6 -1 -17 5 -25 14 -16 10 -57 -6 -62 -6 -2 -9
7 -7 24 5 36 -20 73 -38 56 -10 -10 -10 -18 0 -40 26 -54 29 -58 47 -55 27 5
10 -8 -36 -29 -44 -20 -53 -15 -59 31 -1 8 -37 -2 -59 -16 -2 -1 4 -16 13 -33
21 -41 12 -40 -14 3 -22 35 -26 47 -13 45 21 -4 24 3 6 15 -10 8 -15 18 -11
23 5 4 16 -3 26 -16 17 -23 29 -20 25 7 -1 6 -2 17 -3 23 0 5 -5 8 -10 4 -6
-3 -9 4 -8 15 1 11 5 20 9 20 12 0 -2 28 -18 34 -24 9 -42 -4 -37 -25 5 -16 8
-18 14 -7 6 9 9 4 9 -14 0 -16 -5 -28 -11 -28 -7 0 -9 -10 -5 -27 l6 -28 -25
30 c-27 32 -34 55 -12 36 16 -13 28 -5 20 15 -4 10 -10 11 -24 4 -14 -8 -21
-6 -29 11 -7 11 -14 19 -16 16 -3 -3 8 -24 24 -48 16 -24 46 -70 67 -102 32
-49 39 -55 49 -42 7 9 30 18 56 20 25 2 69 14 97 26 51 22 55 22 100 7 27 -9
78 -16 115 -16 58 0 77 -5 132 -33 59 -31 66 -32 90 -19 18 9 23 16 14 21 -7
4 -17 0 -24 -9 -12 -16 -16 -15 -61 8 -26 14 -61 35 -76 48 -16 12 -34 22 -40
22 -8 0 -7 -3 1 -9 11 -7 10 -10 -3 -15 -26 -10 -42 -7 -25 4 11 8 7 8 -15 3
-73 -19 -136 3 -157 55 -6 15 -12 22 -15 15 -6 -16 -23 -17 -23 -3 0 6 10 15
23 20 12 5 17 9 10 9 -6 1 -16 13 -22 29 -5 15 -18 40 -28 55 -20 31 -20 31
55 86 15 11 25 21 22 24 -3 2 -28 -15 -56 -38z m16 -213 c0 -6 -28 -32 -34
-32 -3 0 -6 9 -6 19 0 14 6 19 20 18 11 -1 20 -3 20 -5z m-172 -52 c10 -17 10
-20 -3 -20 -8 0 -15 2 -15 4 0 2 -3 11 -6 20 -9 23 9 20 24 -4z m92 -10 c-24
-15 -37 -11 -16 5 11 8 22 12 25 9 3 -3 -1 -9 -9 -14z"/>
<path d="M2552 2303 c2 -10 19 -26 38 -35 19 -10 29 -18 22 -18 -7 0 -33 12
-58 26 -35 20 -44 23 -44 11 0 -17 -34 -32 -50 -22 -6 4 -3 -9 6 -28 16 -33
20 -35 52 -30 27 5 34 3 30 -8 -3 -8 -13 -13 -22 -13 -24 2 -19 -11 9 -24 37
-17 53 -15 60 7 8 25 43 34 48 12 3 -9 5 -2 5 14 2 39 -16 69 -58 100 -40 30
-42 30 -38 8z m-25 -55 c-3 -8 -6 -5 -6 6 -1 11 2 17 5 13 3 -3 4 -12 1 -19z"/>
<path d="M2335 2280 c-16 -11 -25 -20 -19 -20 11 0 64 39 54 40 -3 0 -18 -9
-35 -20z"/>
<path d="M2182 2228 c-40 -12 -70 -23 -68 -25 6 -6 123 24 144 37 25 14 6 11
-76 -12z"/>
<path d="M2261 2221 c-16 -12 -20 -21 -12 -25 6 -4 11 -15 11 -25 0 -11 9 -21
22 -24 32 -9 33 -2 8 33 -12 17 -20 33 -17 36 2 2 12 -7 21 -21 14 -21 20 -24
31 -15 18 15 8 41 -13 33 -11 -5 -14 -2 -9 10 8 22 -12 21 -42 -2z"/>
<path d="M2946 2225 c4 -8 7 -15 9 -15 2 0 5 7 9 15 3 9 0 15 -9 15 -9 0 -12
-6 -9 -15z"/>
<path d="M2929 2192 c-3 -20 -2 -29 4 -23 5 5 7 19 5 32 -3 20 -5 19 -9 -9z"/>
<path d="M2150 2190 c-8 -5 -11 -12 -7 -16 4 -4 13 -2 19 4 15 15 7 24 -12 12z"/>
<path d="M2793 2136 c4 -31 2 -39 -17 -45 -11 -5 -29 -18 -39 -29 -17 -19 -17
-20 3 -25 11 -3 23 -1 26 4 3 5 13 5 24 -1 16 -8 18 -8 14 4 -3 9 5 26 19 40
14 14 27 30 29 36 2 6 11 12 21 14 9 1 22 7 29 14 9 9 5 10 -18 3 -16 -4 -35
-6 -43 -3 -7 2 -17 -2 -22 -9 -7 -11 -9 -11 -9 3 0 9 -5 20 -11 24 -7 4 -9 -5
-6 -30z m47 -20 c0 -2 -7 -6 -15 -10 -8 -3 -15 -1 -15 4 0 6 7 10 15 10 8 0
15 -2 15 -4z"/>
<path d="M2273 2126 c4 -10 7 -20 7 -22 0 -3 4 -3 9 1 6 3 8 -3 6 -14 -4 -24
17 -44 38 -36 12 5 12 11 3 31 -6 13 -15 24 -19 24 -5 0 -5 5 -2 10 3 6 2 10
-4 10 -5 0 -17 3 -27 7 -14 5 -16 3 -11 -11z"/>
<path d="M6401 2049 l-73 -91 25 -26 26 -26 25 23 c16 15 29 20 38 14 36 -21
218 -177 218 -186 0 -6 -7 -19 -17 -29 -9 -10 -14 -19 -12 -21 2 -1 16 -12 30
-25 l26 -23 78 97 77 96 -28 23 -29 23 -25 -23 -25 -23 -117 95 -118 95 20 28
20 28 -26 21 c-15 12 -29 21 -33 21 -3 0 -39 -41 -80 -91z"/>
<path d="M2841 2026 c2 -2 15 -9 29 -15 24 -11 24 -11 6 3 -16 13 -49 24 -35
12z"/>
<path d="M2290 2000 c-8 -5 -10 -10 -5 -10 6 0 17 5 25 10 8 5 11 10 5 10 -5
0 -17 -5 -25 -10z"/>
<path d="M4364 1915 c-4 -9 -2 -21 4 -27 15 -15 44 -1 40 19 -4 23 -36 29 -44
8z"/>
<path d="M4450 1915 c-10 -11 -10 -19 -2 -27 15 -15 44 -2 40 19 -4 23 -22 27
-38 8z"/>
<path d="M3090 1854 c-11 -12 -10 -18 3 -31 8 -9 23 -13 31 -10 21 8 21 43 0
51 -21 8 -20 8 -34 -10z"/>
<path d="M3394 1855 c-9 -23 4 -47 23 -43 22 4 30 38 11 49 -19 13 -28 11 -34
-6z"/>
<path d="M3500 1730 l0 -140 24 0 c20 0 25 6 28 32 4 44 22 45 46 3 18 -30 27
-35 57 -35 l36 0 -36 52 c-39 59 -42 70 -19 88 8 8 20 22 25 32 8 16 6 18 -21
18 -23 0 -35 -8 -52 -35 -13 -19 -26 -35 -30 -35 -5 0 -8 36 -8 80 0 79 0 80
-25 80 l-25 0 0 -140z"/>
<path d="M5150 1855 c-11 -13 -11 -19 3 -32 21 -21 49 -9 45 19 -4 28 -30 35
-48 13z"/>
<path d="M2880 1724 l0 -135 28 3 c25 3 27 6 28 53 l1 50 46 3 c39 3 47 6 47
23 0 16 -7 19 -44 19 -47 0 -62 15 -51 51 5 15 16 19 56 19 46 0 49 2 49 25 0
25 -1 25 -80 25 l-80 0 0 -136z"/>
<path d="M4375 1850 c-11 -4 -31 -20 -44 -34 -35 -37 -41 -127 -11 -174 43
-69 137 -77 198 -16 32 32 38 56 32 124 -7 83 -95 133 -175 100z m92 -53 c40
-30 31 -139 -12 -159 -53 -24 -95 15 -95 88 0 76 55 112 107 71z"/>
<path d="M4623 1823 c-7 -2 -13 -13 -13 -24 0 -10 -4 -19 -10 -19 -5 0 -10 -9
-10 -20 0 -11 5 -20 10 -20 6 0 10 -17 10 -39 0 -72 10 -99 41 -110 16 -6 36
-8 44 -5 22 9 18 41 -5 47 -17 4 -20 14 -20 55 0 44 3 51 22 54 31 4 34 26 4
38 -16 6 -26 17 -26 30 0 20 -19 25 -47 13z"/>
<path d="M4053 1775 c-38 -16 -53 -42 -53 -90 0 -50 15 -74 57 -92 47 -19 113
-9 113 17 0 16 -9 19 -52 22 -41 2 -54 7 -56 21 -3 15 5 17 57 17 l61 0 0 31
c0 43 -15 65 -51 78 -39 13 -37 13 -76 -4z m65 -37 c21 -21 13 -28 -28 -28
-38 0 -40 2 -30 20 12 22 40 26 58 8z"/>
<path d="M4795 1776 c-48 -21 -71 -97 -44 -148 26 -48 159 -63 159 -18 0 16
-9 19 -52 22 -41 2 -54 7 -56 21 -3 15 5 17 62 17 72 0 75 3 55 60 -8 22 -22
37 -45 46 -40 17 -41 17 -79 0z m66 -42 c10 -13 10 -17 0 -24 -8 -4 -21 -6
-30 -5 -9 2 -19 4 -23 4 -13 2 -9 29 5 34 22 10 34 7 48 -9z"/>
<path d="M5015 1782 c-73 -15 -71 -94 3 -117 14 -4 22 -13 20 -23 -3 -13 -13
-16 -41 -14 -31 2 -37 0 -37 -16 0 -36 82 -39 123 -4 9 8 17 25 17 38 0 24
-42 64 -67 64 -8 0 -13 7 -11 18 2 11 13 17 33 17 20 0 31 6 33 18 2 9 -2 17
-10 18 -7 0 -20 2 -28 3 -8 1 -24 0 -35 -2z"/>
<path d="M3080 1685 l0 -95 30 0 30 0 0 95 0 95 -30 0 -30 0 0 -95z"/>
<path d="M3190 1760 c0 -16 7 -20 35 -20 19 0 35 -5 35 -11 0 -6 -18 -32 -40
-58 -61 -73 -57 -81 45 -81 78 0 85 2 85 20 0 17 -7 20 -45 20 -25 0 -45 3
-45 8 1 4 20 31 44 61 25 30 42 60 39 68 -4 9 -26 13 -79 13 -67 0 -74 -2 -74
-20z"/>
<path d="M3390 1685 c0 -95 0 -95 25 -95 25 0 25 0 25 95 0 95 0 95 -25 95
-25 0 -25 0 -25 -95z"/>
<path d="M3814 1688 c33 -91 34 -93 66 -93 32 0 33 2 66 93 l34 92 -30 0 c-27
0 -31 -5 -45 -52 -8 -28 -15 -58 -15 -66 0 -29 -15 0 -30 56 -14 53 -17 57
-47 60 l-33 3 34 -93z"/>
<path d="M5140 1685 l0 -95 30 0 30 0 0 95 0 95 -30 0 -30 0 0 -95z"/>
<path d="M6811 1723 c-17 -21 -31 -41 -31 -45 0 -3 13 -16 29 -27 l29 -21 31
35 c17 20 31 40 31 45 0 5 -13 18 -29 29 l-29 21 -31 -37z"/>
<path d="M3850 1315 l0 -145 30 0 30 0 0 145 0 145 -30 0 -30 0 0 -145z"/>
<path d="M4200 1315 l0 -145 30 0 30 0 0 145 0 145 -30 0 -30 0 0 -145z"/>
<path d="M4590 1444 c0 -24 24 -44 55 -44 24 0 38 6 45 19 13 26 13 31 -5 31
-8 0 -15 -4 -15 -10 0 -5 -9 -10 -19 -10 -11 0 -23 5 -26 10 -7 11 -35 14 -35
4z"/>
<path d="M3170 1415 c0 -22 4 -25 35 -25 l35 0 0 -110 0 -110 30 0 30 0 0 110
0 110 35 0 c31 0 35 3 35 25 l0 25 -100 0 -100 0 0 -25z"/>
<path d="M3412 1360 c-35 -15 -57 -75 -43 -122 32 -106 201 -78 201 33 0 28
-27 77 -49 89 -24 12 -78 12 -109 0z m89 -57 c16 -42 0 -88 -31 -88 -35 0 -54
41 -39 84 15 42 55 44 70 4z"/>
<path d="M3610 1230 l0 -140 30 0 c29 0 30 1 30 52 0 40 3 49 12 40 24 -24 74
-14 103 20 24 28 27 39 22 82 -7 74 -59 107 -120 75 -16 -9 -22 -9 -25 0 -2 6
-15 11 -28 11 l-24 0 0 -140z m128 88 c7 -7 12 -29 12 -50 0 -31 -5 -41 -25
-50 -34 -15 -55 4 -55 51 0 40 14 61 40 61 9 0 21 -5 28 -12z"/>
<path d="M3962 1290 c3 -58 10 -85 23 -100 22 -24 62 -26 93 -4 20 14 22 14
22 0 0 -10 9 -16 25 -16 l25 0 0 100 0 100 -30 0 -30 0 0 -68 c0 -84 -19 -111
-54 -76 -11 11 -16 35 -16 80 l0 64 -31 0 -32 0 5 -80z"/>
<path d="M4313 1354 c-11 -30 4 -144 22 -164 22 -24 62 -26 93 -4 20 14 22 14
22 0 0 -10 9 -16 25 -16 l25 0 0 100 0 100 -30 0 -30 0 0 -70 c0 -58 -3 -71
-19 -80 -34 -17 -51 12 -51 86 0 62 -1 64 -25 64 -14 0 -28 -7 -32 -16z"/>
<path d="M4584 1355 c-35 -24 -49 -70 -35 -114 17 -59 51 -77 109 -57 16 5 22
4 22 -8 0 -29 -31 -48 -71 -43 -28 4 -39 1 -44 -11 -8 -21 12 -32 63 -32 88 0
112 39 112 185 0 95 0 95 -25 95 -14 0 -25 -5 -25 -10 0 -7 -6 -7 -19 0 -28
14 -63 13 -87 -5z m85 -39 c7 -8 11 -32 9 -53 -2 -31 -7 -39 -26 -41 -30 -5
-52 14 -52 45 0 54 41 83 69 49z"/>
<path d="M4791 1285 c3 -72 7 -89 23 -101 24 -17 59 -18 87 -1 17 10 23 10 26
0 3 -7 14 -13 26 -13 21 0 22 3 19 100 -3 98 -4 100 -28 100 -23 0 -24 -3 -24
-64 0 -45 -5 -69 -16 -80 -34 -34 -52 -10 -56 74 -3 63 -4 65 -32 68 l-28 4 3
-87z"/>
</g>
</svg>
